<svg xmlns="http://www.w3.org/2000/svg" viewBox="0 0 37.448 42.99">
  <defs>
    <style>
      .cls-1 {
        fill: #737997;
      }

      .cls-2 {
        fill: #151f51;
      }

      .cls-3 {
        fill: #fff;
      }
    </style>
  </defs>
  <g id="clipboard">
    <g>
      <path class="cls-1" d="M4.592,33.914A3.6,3.6,0,0,1,1,30.322V8.645A3.6,3.6,0,0,1,4.592,5.053h6.552a2.9,2.9,0,0,0,5.436,0h6.553a3.6,3.6,0,0,1,3.592,3.592V30.322a3.6,3.6,0,0,1-3.592,3.592Z"/>
      <path class="cls-2" d="M23.132,6.053a2.6,2.6,0,0,1,2.592,2.592V30.322a2.594,2.594,0,0,1-2.592,2.592H4.592A2.6,2.6,0,0,1,2,30.322V8.645A2.6,2.6,0,0,1,4.592,6.053h5.93a3.9,3.9,0,0,0,6.681,0h5.929m0-2H15.759a1.9,1.9,0,0,1-3.794,0H4.592A4.6,4.6,0,0,0,0,8.645V30.322a4.6,4.6,0,0,0,4.592,4.592h18.54a4.6,4.6,0,0,0,4.592-4.592V8.645a4.6,4.6,0,0,0-4.592-4.592Z"/>
    </g>
    <path class="cls-2" d="M17.915,4.053a4.053,4.053,0,1,0-8.106,0H5.875V7.977a2.083,2.083,0,0,0,2.069,2.069H19.78a2.084,2.084,0,0,0,2.07-2.069V4.053Zm-4.053-1.9a1.892,1.892,0,1,1-1.9,1.9A1.9,1.9,0,0,1,13.862,2.156Z"/>
  </g>
  <g id="paper">
    <g>
      <path class="cls-3" d="M14.315,41.99A3.6,3.6,0,0,1,10.723,38.4V16.721a3.6,3.6,0,0,1,3.592-3.593h9.7l3.051,2.953,9.385,9.062V38.4a3.6,3.6,0,0,1-3.592,3.593Z"/>
      <path class="cls-2" d="M23.606,14.129,26.368,16.8l6.456,6.229,2.624,2.536V38.4a2.6,2.6,0,0,1-2.593,2.592H14.315A2.6,2.6,0,0,1,11.723,38.4V16.721a2.6,2.6,0,0,1,2.592-2.592h9.291m.809-2h-10.1a4.6,4.6,0,0,0-4.592,4.592V38.4a4.6,4.6,0,0,0,4.592,4.592h18.54A4.6,4.6,0,0,0,37.448,38.4V24.719l-3.234-3.126-6.457-6.231-3.342-3.233Z"/>
    </g>
    <path class="cls-2" d="M37.448,25.521l-8.508.3A4.9,4.9,0,0,1,23.883,21.1l-.3-8.966,3.555,3.439L34.008,22.2Z"/>
    <rect class="cls-2" x="13.461" y="31.111" width="20.248" height="1.872" rx="0.868"/>
    <rect class="cls-2" x="13.461" y="26.799" width="20.248" height="1.872" rx="0.868"/>
    <rect class="cls-2" x="13.461" y="22.488" width="9.228" height="1.872" rx="0.868"/>
    <rect class="cls-2" x="13.461" y="35.423" width="9.228" height="1.872" rx="0.868"/>
    <rect class="cls-2" x="13.461" y="18.176" width="9.228" height="1.872" rx="0.868"/>
  </g>
</svg>
