<svg id="lock" xmlns="http://www.w3.org/2000/svg" viewBox="0 0 10.03 10.057">
  <defs>
    <style>
      .cls-1 {
        fill: #e2322a;
      }
    </style>
  </defs>
  <path class="cls-1" d="M9.17,3.377H.87a.871.871,0,0,0-.87.87v4.94a.871.871,0,0,0,.87.87h8.3a.869.869,0,0,0,.86-.87V4.247A.869.869,0,0,0,9.17,3.377ZM5.64,7.447a.625.625,0,0,1-1.25,0V5.987a.625.625,0,0,1,1.25,0Z"/>
  <path class="cls-1" d="M5.016,9.8a3.344,3.344,0,0,1-3.34-3.34V3.34a3.341,3.341,0,0,1,6.681,0V6.457A3.345,3.345,0,0,1,5.016,9.8Zm0-8.5a2.042,2.042,0,0,0-2.04,2.04V6.457a2.04,2.04,0,1,0,4.08,0V3.34A2.042,2.042,0,0,0,5.016,1.3Z"/>
</svg>
