<svg id="arrow" xmlns="http://www.w3.org/2000/svg" viewBox="0 0 166.283 96.07">
  <defs>
    <style>
      .cls-1 {
        fill: #fff;
      }
    </style>
  </defs>
  <path id="chub" class="cls-1" d="M3.638,21.55,40.058.145a1.042,1.042,0,0,1,1.57.9L32.109,26.614a3.7,3.7,0,0,0,0,2.586l9.519,25.572a1.042,1.042,0,0,1-1.57.9l-36.42-21.4A7.374,7.374,0,0,1,3.638,21.55Z"/>
  <g id="tail">
    <path class="cls-1" d="M128.7,96.07H85.171a7,7,0,1,1,0-14H128.7a23.581,23.581,0,0,0,0-47.162H33.964a7,7,0,0,1,0-14H128.7a37.581,37.581,0,0,1,0,75.162Z"/>
  </g>
</svg>
