<svg xmlns="http://www.w3.org/2000/svg" viewBox="0 0 135.72 135.72">
  <defs>
    <style>
      .cls-1 {
        fill: #3c3a70;
      }

      .cls-2 {
        fill: #fff;
      }

      .cls-3 {
        fill: #b41f30;
      }
    </style>
  </defs>
  <g id="Layer_9" data-name="Layer 9">
    <path class="cls-1" d="M41.41,5.36Q38.7,6.5,36.12,7.88c-1.92,1.01-3.79,2.12-5.6,3.31q-1.83,1.215-3.57,2.53a67.775,67.775,0,0,0-5.5,4.64c-1.13,1.05-2.21,2.14-3.26,3.27-1.49,1.61-2.92,3.29-4.25,5.04-1.17,1.52-2.27,3.08-3.29,4.7l-.01.01A64.7,64.7,0,0,0,6.1,39.73v.01a.2.2,0,0,0-.05.09,66.029,66.029,0,0,0-3.13,8.29c-.63,2.08-1.17,4.2-1.6,6.36A67.01,67.01,0,0,0,.09,64.47c-.02.22-.03.45-.03.68-.04.9-.06,1.8-.06,2.71,0,1.85.07,3.68.22,5.49H64.23V.1A67.073,67.073,0,0,0,41.41,5.36Z"/>
  </g>
  <g id="stars">
    <g>
      <polygon class="cls-2" points="55.573 2.504 56.846 5.083 59.691 5.496 57.632 7.503 58.118 10.337 55.573 8.999 53.028 10.337 53.514 7.503 51.456 5.496 54.301 5.083 55.573 2.504"/>
      <polygon class="cls-2" points="55.573 17.27 56.846 19.849 59.691 20.262 57.632 22.269 58.118 25.103 55.573 23.765 53.028 25.103 53.514 22.269 51.456 20.262 54.301 19.849 55.573 17.27"/>
      <polygon class="cls-2" points="55.573 32.036 56.846 34.614 59.691 35.028 57.632 37.035 58.118 39.869 55.573 38.531 53.028 39.869 53.514 37.035 51.456 35.028 54.301 34.614 55.573 32.036"/>
      <polygon class="cls-2" points="55.573 46.802 56.846 49.38 59.691 49.794 57.632 51.801 58.118 54.634 55.573 53.297 53.028 54.634 53.514 51.801 51.456 49.794 54.301 49.38 55.573 46.802"/>
      <polygon class="cls-2" points="55.573 61.568 56.846 64.146 59.691 64.56 57.632 66.567 58.118 69.4 55.573 68.062 53.028 69.4 53.514 66.567 51.456 64.56 54.301 64.146 55.573 61.568"/>
    </g>
    <g>
      <path class="cls-2" d="M40.3,7.5l.48,2.84L38.24,9,35.7,10.34l.42-2.46Q38.7,6.5,41.41,5.36l.95.14Z"/>
      <polygon class="cls-2" points="38.24 17.27 39.513 19.849 42.358 20.262 40.299 22.269 40.785 25.103 38.24 23.765 35.695 25.103 36.181 22.269 34.122 20.262 36.968 19.849 38.24 17.27"/>
      <polygon class="cls-2" points="38.24 32.036 39.513 34.614 42.358 35.028 40.299 37.035 40.785 39.869 38.24 38.531 35.695 39.869 36.181 37.035 34.122 35.028 36.968 34.614 38.24 32.036"/>
      <polygon class="cls-2" points="38.24 46.802 39.513 49.38 42.358 49.794 40.299 51.801 40.785 54.634 38.24 53.297 35.695 54.634 36.181 51.801 34.122 49.794 36.968 49.38 38.24 46.802"/>
      <polygon class="cls-2" points="38.24 61.568 39.513 64.146 42.358 64.56 40.299 66.567 40.785 69.4 38.24 68.062 35.695 69.4 36.181 66.567 34.122 64.56 36.968 64.146 38.24 61.568"/>
    </g>
    <g>
      <path class="cls-2" d="M22.97,22.27l.48,2.83-2.54-1.34L18.36,25.1l.49-2.83-.66-.64c1.05-1.13,2.13-2.22,3.26-3.27l.73,1.49,2.84.41Z"/>
      <polygon class="cls-2" points="20.907 32.036 22.179 34.614 25.024 35.028 22.966 37.035 23.452 39.869 20.907 38.531 18.362 39.869 18.848 37.035 16.789 35.028 19.634 34.614 20.907 32.036"/>
      <polygon class="cls-2" points="20.907 46.802 22.179 49.38 25.024 49.794 22.966 51.801 23.452 54.634 20.907 53.297 18.362 54.634 18.848 51.801 16.789 49.794 19.634 49.38 20.907 46.802"/>
      <polygon class="cls-2" points="20.907 61.568 22.179 64.146 25.024 64.56 22.966 66.567 23.452 69.4 20.907 68.062 18.362 69.4 18.848 66.567 16.789 64.56 19.634 64.146 20.907 61.568"/>
    </g>
    <g>
      <path class="cls-2" d="M6.12,39.87l-.07-.04a.2.2,0,0,1,.05-.09Z"/>
      <path class="cls-2" d="M5.63,51.8l.49,2.83L3.57,53.3,1.32,54.48c.43-2.16.97-4.28,1.6-6.36l.65-1.32,1.28,2.58,2.84.41Z"/>
      <path class="cls-2" d="M5.63,66.57l.49,2.83L3.57,68.06,1.03,69.4l.48-2.83L.06,65.15c0-.23.01-.46.03-.68l2.21-.32,1.27-2.58,1.28,2.58,2.84.41Z"/>
    </g>
    <g>
      <path class="cls-2" d="M14.3,29.03l.48,2.84-2.54-1.34-1.59.84c1.02-1.62,2.12-3.18,3.29-4.7l2.42.36Z"/>
      <polygon class="cls-2" points="12.24 38.802 13.513 41.38 16.358 41.794 14.299 43.801 14.785 46.634 12.24 45.297 9.695 46.634 10.181 43.801 8.122 41.794 10.968 41.38 12.24 38.802"/>
      <polygon class="cls-2" points="12.24 53.568 13.513 56.146 16.358 56.56 14.299 58.567 14.785 61.4 12.24 60.062 9.695 61.4 10.181 58.567 8.122 56.56 10.968 56.146 12.24 53.568"/>
    </g>
    <g>
      <path class="cls-2" d="M31.63,14.27l.49,2.83-2.55-1.34L27.03,17.1l.48-2.83-.56-.55q1.74-1.32,3.57-2.53l.33.66,2.84.41Z"/>
      <polygon class="cls-2" points="29.573 24.036 30.846 26.614 33.691 27.028 31.632 29.035 32.118 31.869 29.573 30.531 27.028 31.869 27.514 29.035 25.456 27.028 28.301 26.614 29.573 24.036"/>
      <polygon class="cls-2" points="29.573 38.802 30.846 41.38 33.691 41.794 31.632 43.801 32.118 46.634 29.573 45.297 27.028 46.634 27.514 43.801 25.456 41.794 28.301 41.38 29.573 38.802"/>
      <polygon class="cls-2" points="29.573 53.568 30.846 56.146 33.691 56.56 31.632 58.567 32.118 61.4 29.573 60.062 27.028 61.4 27.514 58.567 25.456 56.56 28.301 56.146 29.573 53.568"/>
    </g>
    <g>
      <polygon class="cls-2" points="46.907 9.27 48.179 11.849 51.024 12.262 48.966 14.269 49.452 17.103 46.907 15.765 44.362 17.103 44.848 14.269 42.789 12.262 45.634 11.849 46.907 9.27"/>
      <polygon class="cls-2" points="46.907 24.036 48.179 26.614 51.024 27.028 48.966 29.035 49.452 31.869 46.907 30.531 44.362 31.869 44.848 29.035 42.789 27.028 45.634 26.614 46.907 24.036"/>
      <polygon class="cls-2" points="46.907 38.802 48.179 41.38 51.024 41.794 48.966 43.801 49.452 46.634 46.907 45.297 44.362 46.634 44.848 43.801 42.789 41.794 45.634 41.38 46.907 38.802"/>
      <polygon class="cls-2" points="46.907 53.568 48.179 56.146 51.024 56.56 48.966 58.567 49.452 61.4 46.907 60.062 44.362 61.4 44.848 58.567 42.789 56.56 45.634 56.146 46.907 53.568"/>
    </g>
  </g>
  <g id="stripes">
    <path class="cls-2" d="M114.27,18.36A68.034,68.034,0,0,0,98.63,7.37c-.01-.01-.01-.01-.02-.01H64.23V18.37h50.05Z"/>
    <path class="cls-3" d="M123.75,29.37H64.23V18.36h50.04l.01.01a67.506,67.506,0,0,1,9.46,10.99Z"/>
    <path class="cls-3" d="M98.63,7.37H64.23V.1c1.2-.07,2.41-.1,3.63-.1A67.452,67.452,0,0,1,98.61,7.36C98.62,7.36,98.62,7.36,98.63,7.37Z"/>
    <path class="cls-2" d="M129.91,40.37H64.23V29.36h59.51l.01.01a66.357,66.357,0,0,1,6.15,10.99Z"/>
    <path class="cls-3" d="M133.69,51.35a.014.014,0,0,1,0,.02H64.23V40.36H129.9l.01.01A65.264,65.264,0,0,1,133.69,51.35Z"/>
    <path class="cls-2" d="M135.5,62.37H64.23V51.35h69.46a.014.014,0,0,1,0,.02,65.173,65.173,0,0,1,1.8,10.98C135.5,62.36,135.5,62.36,135.5,62.37Z"/>
    <path class="cls-3" d="M135.72,67.86c0,1.85-.07,3.68-.22,5.49,0,.01,0,.01-.01.02H64.23V62.35h71.26c.01.01.01.01.01.02C135.65,64.18,135.72,66.01,135.72,67.86Z"/>
    <path class="cls-2" d="M135.5,73.35c0,.01,0,.01-.01.02a65.173,65.173,0,0,1-1.8,10.98.014.014,0,0,1,0,.02H2.03a.014.014,0,0,1,0-.02,66.447,66.447,0,0,1-1.81-11Z"/>
    <path class="cls-3" d="M133.69,84.35a.014.014,0,0,1,0,.02,65.264,65.264,0,0,1-3.78,10.98l-.01.01H5.82l-.01-.01A65.264,65.264,0,0,1,2.03,84.37a.014.014,0,0,1,0-.02Z"/>
    <path class="cls-2" d="M129.91,95.35l-.01.01a66.357,66.357,0,0,1-6.15,10.99l-.01.01H11.98l-.01-.01A66.357,66.357,0,0,1,5.82,95.36l-.01-.01Z"/>
    <path class="cls-3" d="M123.75,106.35l-.01.01a67.506,67.506,0,0,1-9.46,10.99l-.01.01H21.45l-.01-.01a67.506,67.506,0,0,1-9.46-10.99l-.01-.01Z"/>
    <path class="cls-2" d="M114.28,117.35l-.01.01a68.034,68.034,0,0,1-15.64,10.99c-.01.01-.01.01-.02.01H37.11c-.01,0-.01,0-.02-.01a68.034,68.034,0,0,1-15.64-10.99l-.01-.01Z"/>
    <path class="cls-3" d="M98.63,128.35c-.01.01-.01.01-.02.01a67.917,67.917,0,0,1-61.5,0c-.01,0-.01,0-.02-.01Z"/>
  </g>
</svg>
