<svg id="Layer_3" data-name="Layer 3" xmlns="http://www.w3.org/2000/svg" viewBox="0 0 37.448 42.99">
  <defs>
    <style>
      .cls-1 {
        fill: #151f51;
      }
    </style>
  </defs>
  <path class="cls-1" d="M48.17,37.9a5.932,5.932,0,0,1-2.1,4.06L31.62,54.1a5.928,5.928,0,0,1-3.83,1.4,4.578,4.578,0,0,1-.53-.03,5.912,5.912,0,0,1-4.06-2.1L5.74,32.59a5.988,5.988,0,0,1,.27-7.98L3,21.03a4.216,4.216,0,0,1,.52-5.94l.06-.05L12.43,7.6l.06-.05a4.218,4.218,0,0,1,5.94.52l3.01,3.58a6,6,0,0,1,7.91,1.11L46.8,33.54A5.946,5.946,0,0,1,48.17,37.9Z"/>
  <path class="cls-1" d="M6.538,5.253,9.889,9.242,5.63,12.82l-2-2.38L6.538,5.253M6.043,0,0,10.782l5.263,6.265,8.853-7.438L6.043,0Z"/>
</svg>
