<svg id="Layer_1" data-name="Layer 1" xmlns="http://www.w3.org/2000/svg" viewBox="0 0 37.448 42.99">
  <defs>
    <style>
      .cls-1 {
        fill: #151f51;
      }
    </style>
  </defs>
  <path class="cls-1" d="M46.8,33.54,29.35,12.76a6,6,0,0,0-7.91-1.11,3.751,3.751,0,0,0-.51.38l-.66.56-1.15.96.96,1.15.97,1.15,1.15-.97.66-.55a2.749,2.749,0,0,1,.53-.36,2.947,2.947,0,0,1,1.37-.33,2.437,2.437,0,0,1,.27.01,2.983,2.983,0,0,1,2.02,1.04L44.5,35.47a2.993,2.993,0,0,1-.36,4.19L29.69,51.8a3.006,3.006,0,0,1-4.2-.36L8.04,30.66a2.926,2.926,0,0,1-.68-2.17,2.994,2.994,0,0,1,.6-1.56,3.192,3.192,0,0,1,.44-.46l.66-.56,1.15-.96-1.92-2.3-1.16.97-.65.55c-.17.14-.32.29-.47.44a5.988,5.988,0,0,0-.27,7.98L23.2,53.37a5.912,5.912,0,0,0,4.06,2.1,4.578,4.578,0,0,0,.53.03,5.928,5.928,0,0,0,3.83-1.4L46.07,41.96a6,6,0,0,0,.73-8.42Z"/>
  <path class="cls-1" d="M22.41,12.81l-.97-1.16L18.43,8.07a4.218,4.218,0,0,0-5.94-.52l-.06.05L3.58,15.04l-.06.05A4.216,4.216,0,0,0,3,21.03l3.01,3.58.98,1.16.97,1.16a3.192,3.192,0,0,1,.44-.46l.66-.56,1.15-.96-1.92-2.3L5.3,19.1a1.2,1.2,0,0,1-.28-.89,1.23,1.23,0,0,1,.43-.83l8.97-7.53a1.169,1.169,0,0,1,.78-.28h.11a1.187,1.187,0,0,1,.82.43l2.99,3.55.96,1.15.97,1.15,1.15-.97.66-.55a2.749,2.749,0,0,1,.53-.36Z"/>
  <polygon class="cls-1" points="6.043 0 14.116 9.609 5.263 17.047 0 10.782 6.043 0"/>
</svg>
