<svg id="Layer_3" data-name="Layer 3" xmlns="http://www.w3.org/2000/svg" viewBox="0 0 37.448 42.99">
  <defs>
    <style>
      .cls-1 {
        fill: #151f51;
      }

      .cls-2 {
        fill: none;
        stroke: #151f51;
        stroke-linecap: round;
        stroke-linejoin: round;
        stroke-width: 3px;
      }
    </style>
  </defs>
  <g>
    <path class="cls-1" d="M33.716,7.988H3.726a.581.581,0,0,0-.58.65l2.93,27a5.864,5.864,0,0,0,5.85,5.85h13.6a5.87,5.87,0,0,0,5.85-5.85l2.93-27A.594.594,0,0,0,33.716,7.988ZM12.236,36.4l-2.02-23.15a1,1,0,0,1,1.99-.17l2.03,23.15a1,1,0,0,1-.91,1.08h-.09A1.008,1.008,0,0,1,12.236,36.4Zm5.49-.04V13.118a1,1,0,0,1,2,0v23.24a1,1,0,0,1-2,0Zm6.49.95h-.09a1,1,0,0,1-.91-1.08l2.02-23.15a1,1,0,0,1,2,.17L25.206,36.4A.991.991,0,0,1,24.216,37.308Z"/>
    <path class="cls-1" d="M35.266,7.178a2.076,2.076,0,0,0-1.55-.69H3.726a2.076,2.076,0,0,0-1.55.69,2.048,2.048,0,0,0-.52,1.62l2.92,26.93a7.356,7.356,0,0,0,7.35,7.26h13.6a7.363,7.363,0,0,0,7.35-7.26L35.8,8.8A2.092,2.092,0,0,0,35.266,7.178Zm-5.39,28.46a4.353,4.353,0,0,1-4.35,4.35h-13.6a4.353,4.353,0,0,1-4.35-4.35L4.746,9.488h27.96l-2.82,25.99Z"/>
  </g>
  <line class="cls-2" x1="1.5" y1="7.984" x2="35.948" y2="7.984"/>
  <rect class="cls-2" x="11.911" y="1.5" width="13.625" height="6.484" rx="1.901"/>
</svg>
