<svg id="Layer_9" data-name="Layer 9" xmlns="http://www.w3.org/2000/svg" viewBox="0 0 135.72 135.72">
  <defs>
    <style>
      .cls-1 {
        fill: #000068;
      }

      .cls-2 {
        fill: #fff;
      }

      .cls-3 {
        fill: #cf0000;
      }
    </style>
  </defs>
  <g>
    <path class="cls-1" d="M135.72,67.86a67.059,67.059,0,0,1-.51,8.31q-.33,2.775-.89,5.47a65.576,65.576,0,0,1-2.51,8.96c-.26.75-.54,1.49-.83,2.22q-1.08,2.73-2.39,5.33a66.006,66.006,0,0,1-4.23,7.3,67.883,67.883,0,0,1-42.73,28.87c-1.78.37-3.58.67-5.41.88a67.3,67.3,0,0,1-16.62.01c-1.87-.21-3.71-.52-5.53-.89a67.862,67.862,0,0,1-42.68-28.83c-.53-.79-1.05-1.6-1.54-2.42q-1.53-2.49-2.82-5.12a64.615,64.615,0,0,1-3.1-7.31,66.188,66.188,0,0,1-2.53-9q-.555-2.7-.89-5.47a67.957,67.957,0,0,1,0-16.62q.33-2.775.89-5.47a66.188,66.188,0,0,1,2.53-9c.28-.82.59-1.64.92-2.44q1.08-2.73,2.41-5.32a65.839,65.839,0,0,1,4.13-7.09A67.862,67.862,0,0,1,54.07,1.4c1.82-.37,3.66-.68,5.53-.89A67.3,67.3,0,0,1,76.22.52c1.83.21,3.63.51,5.41.88a67.883,67.883,0,0,1,42.73,28.87c.48.72.95,1.46,1.4,2.2q1.53,2.49,2.84,5.11a67.69,67.69,0,0,1,5.72,16.5q.555,2.7.89,5.47A67.059,67.059,0,0,1,135.72,67.86Z"/>
    <path class="cls-2" d="M131.81,45.12l-17.87,8.96-10.91,5.47L86.46,67.86l-2.63,1.32-2.2,1.1L78.1,72.05h-.01l-1.87.94-6.34,3.18-1.97.99L59.6,81.32l-.63.32-4.9,2.46L11.39,105.49c-.53-.79-1.05-1.6-1.54-2.42q-1.53-2.49-2.82-5.12a64.615,64.615,0,0,1-3.1-7.31l17.95-9,10.91-5.47,16.57-8.31,2.89-1.45,1.82-.91,2.01-1.01,3.52-1.76,6.34-3.18,1.97-.99,8.31-4.16.63-.32,4.78-2.4,42.73-21.41c.48.72.95,1.46,1.4,2.2q1.53,2.49,2.84,5.11A66.155,66.155,0,0,1,131.81,45.12Z"/>
    <path class="cls-2" d="M131.81,90.6c-.26.75-.54,1.49-.83,2.22q-1.08,2.73-2.39,5.33a66.006,66.006,0,0,1-4.23,7.3L81.63,84.04l-4.78-2.4-.63-.32-8.31-4.16-1.97-.99-1.22-.61L59.6,72.99l-1.39-.7-4.14-2.07-4.71-2.36L32.79,59.55,21.88,54.08l-17.95-9c.28-.82.59-1.64.92-2.44q1.08-2.73,2.41-5.32a65.839,65.839,0,0,1,4.13-7.09L54.07,51.62l4.9,2.46.63.32,8.31,4.16,1.97.99,2.87,1.44,3.47,1.74,1.11.56,4.3,2.15,4.83,2.42,16.57,8.31,10.91,5.47Z"/>
    <path class="cls-3" d="M130.98,92.82q-1.08,2.73-2.39,5.33L95.66,81.64,84.74,76.17l-3.11-1.56-3.85-1.93.31-.63h.01l2.3-4.59,1.23.62,2.2,1.1,13.94,6.99,10.92,5.47Z"/>
    <path class="cls-3" d="M57.16,62.34l-1.08,2.15-1.54,3.07-.47-.24-1.82-.91L38.57,59.55,27.66,54.08,4.85,42.64q1.08-2.73,2.41-5.32L40.69,54.08,51.6,59.55l2.47,1.24Z"/>
    <path class="cls-3" d="M66.04,74.9l-1.32.66-1.21.61L59.6,78.13,54.07,80.9l-1.47.74L9.85,103.07q-1.53-2.49-2.82-5.12L39.56,81.64l10.91-5.47,3.6-1.8,4.14-2.08,1.39-.69,3.82-1.92Z"/>
    <path class="cls-3" d="M125.76,32.47q1.53,2.49,2.84,5.11L95.69,54.08,84.78,59.55l-3.15,1.58-4.3,2.16-1.11.55-1.63.82-1.84-3.67-.72-1.44-.06-.12,4.25-2.13,5.41-2.71,1.01-.51Z"/>
    <path class="cls-2" d="M81.63,1.4V134.32c-1.78.37-3.58.67-5.41.88a67.3,67.3,0,0,1-16.62.01c-1.87-.21-3.71-.52-5.53-.89V1.4c1.82-.37,3.66-.68,5.53-.89A67.3,67.3,0,0,1,76.22.52C78.05.73,79.85,1.03,81.63,1.4Z"/>
    <path class="cls-2" d="M135.72,67.86a67.059,67.059,0,0,1-.51,8.31q-.33,2.775-.89,5.47H1.4q-.555-2.7-.89-5.47a67.957,67.957,0,0,1,0-16.62q.33-2.775.89-5.47H134.32q.555,2.7.89,5.47A67.059,67.059,0,0,1,135.72,67.86Z"/>
    <path class="cls-3" d="M76.22.52V135.2a67.3,67.3,0,0,1-16.62.01V.51A67.3,67.3,0,0,1,76.22.52Z"/>
    <path class="cls-3" d="M135.21,59.55a67.957,67.957,0,0,1,0,16.62H.51a67.957,67.957,0,0,1,0-16.62Z"/>
  </g>
</svg>
