<svg id="gherkin_pattern" data-name="gherkin pattern" xmlns="http://www.w3.org/2000/svg" viewBox="0 0 323.55 420">
  <defs>
    <style>
      .cls-1 {
        fill: none;
      }

      .cls-2 {
        fill: #2d4771;
      }

      .cls-3 {
        fill: #3c498e;
      }

      .cls-4 {
        fill: #d8dfea;
      }

      .cls-5 {
        fill: #9e9ccb;
      }

      .cls-6 {
        fill: #4a8db5;
      }

      .cls-7 {
        fill: #b7dfea;
      }

      .cls-8 {
        fill: #5f91d4;
      }

      .cls-9 {
        fill: #6776c9;
      }

      .cls-10 {
        fill: #30578e;
      }

      .cls-11 {
        fill: #588abf;
      }

      .cls-12 {
        fill: #637fab;
      }
    </style>
  </defs>
  <g>
    <rect class="cls-1" width="323.55" height="420"/>
    <path class="cls-2" d="M161.775,426.253l35.4,46.016-35.4,46.017-35.4-46.017,35.4-46.016m0-6.56-40.444,52.576,40.444,52.577,40.444-52.577-40.444-52.576Z"/>
    <g>
      <g>
        <polygon class="cls-3" points="204.742 367.423 242.662 318.127 280.583 367.423 242.662 416.72 204.742 367.423"/>
        <path class="cls-2" d="M242.662,321.407l35.4,46.016-35.4,46.017-35.4-46.017,35.4-46.016m0-6.561-40.443,52.577L242.662,420l40.444-52.577-40.444-52.577Z"/>
      </g>
      <g>
        <polygon class="cls-4" points="246.724 418 283.107 370.703 319.488 418 246.724 418"/>
        <path class="cls-2" d="M283.106,373.984,315.426,416h-64.64l32.32-42.016m0-6.561L242.662,420H323.55l-40.444-52.577Z"/>
      </g>
      <g>
        <polygon class="cls-4" points="165.837 418 202.219 370.703 238.601 418 165.837 418"/>
        <path class="cls-2" d="M202.219,373.984,234.539,416H169.9l32.321-42.016m0-6.561L161.775,420h80.887l-40.443-52.577Z"/>
      </g>
      <g>
        <polygon class="cls-5" points="285.63 262.269 323.55 212.973 361.47 262.269 323.55 311.566 285.63 262.269"/>
        <path class="cls-2" d="M323.55,216.253l35.4,46.016-35.4,46.017-35.4-46.017,35.4-46.016m0-6.56-40.444,52.576,40.444,52.577,40.444-52.577L323.55,209.693Z"/>
      </g>
      <g>
        <polygon class="cls-6" points="285.63 367.423 323.55 318.127 361.47 367.423 323.55 416.72 285.63 367.423"/>
        <path class="cls-2" d="M323.55,321.407l35.4,46.016-35.4,46.017-35.4-46.017,35.4-46.016m0-6.561-40.444,52.577L323.55,420l40.444-52.577L323.55,314.846Z"/>
      </g>
      <g>
        <polygon class="cls-7" points="246.724 316.846 319.488 316.846 283.107 364.143 246.724 316.846"/>
        <path class="cls-2" d="M315.426,318.846l-32.32,42.017-32.32-42.017h64.64m8.124-4H242.662l40.444,52.577,40.444-52.577Z"/>
      </g>
      <g>
        <polygon class="cls-4" points="246.724 312.846 283.107 265.55 319.488 312.846 246.724 312.846"/>
        <path class="cls-2" d="M283.106,268.83l32.32,42.016h-64.64l32.32-42.016m0-6.561-40.444,52.577H323.55l-40.444-52.577Z"/>
      </g>
    </g>
    <g>
      <g>
        <polygon class="cls-8" points="42.967 367.423 80.888 318.127 118.808 367.423 80.888 416.72 42.967 367.423"/>
        <path class="cls-2" d="M80.887,321.407l35.4,46.016-35.4,46.017-35.4-46.017,35.4-46.016m0-6.561L40.444,367.423,80.887,420l40.444-52.577L80.887,314.846Z"/>
      </g>
      <g>
        <polygon class="cls-4" points="84.949 418 121.331 370.703 157.714 418 84.949 418"/>
        <path class="cls-2" d="M121.331,373.984,153.651,416H89.011l32.32-42.016m0-6.561L80.887,420h80.888l-40.444-52.577Z"/>
      </g>
      <g>
        <polygon class="cls-4" points="4.061 418 40.443 370.703 76.826 418 4.061 418"/>
        <path class="cls-2" d="M40.444,373.984,72.764,416H8.123l32.321-42.016m0-6.561L0,420H80.887L40.444,367.423Z"/>
      </g>
      <g>
        <polygon class="cls-5" points="-37.92 262.269 0 212.973 37.92 262.269 0 311.566 -37.92 262.269"/>
        <path class="cls-2" d="M0,216.253l35.4,46.016L0,308.286l-35.4-46.017L0,216.253m0-6.56-40.444,52.576L0,314.846l40.444-52.577L0,209.693Z"/>
      </g>
      <g>
        <polygon class="cls-6" points="-37.92 367.423 0 318.127 37.92 367.423 0 416.72 -37.92 367.423"/>
        <path class="cls-2" d="M0,321.407l35.4,46.016L0,413.44l-35.4-46.017L0,321.407m0-6.561-40.444,52.577L0,420l40.444-52.577L0,314.846Z"/>
      </g>
      <g>
        <polygon class="cls-7" points="4.061 316.846 76.826 316.846 40.443 364.143 4.061 316.846"/>
        <path class="cls-2" d="M72.764,318.846l-32.32,42.017L8.123,318.846H72.764m8.123-4H0l40.444,52.577,40.443-52.577Z"/>
      </g>
      <g>
        <polygon class="cls-4" points="4.061 312.846 40.443 265.55 76.826 312.846 4.061 312.846"/>
        <path class="cls-2" d="M40.444,268.83l32.32,42.016H8.123L40.444,268.83m0-6.561L0,314.846H80.887L40.444,262.269Z"/>
      </g>
    </g>
    <g>
      <g>
        <polygon class="cls-3" points="42.967 157.423 80.887 108.127 118.808 157.423 80.887 206.72 42.967 157.423"/>
        <path class="cls-2" d="M80.887,111.407l35.4,46.016-35.4,46.017-35.4-46.017,35.4-46.016m0-6.561L40.444,157.423,80.887,210l40.444-52.577L80.887,104.846Z"/>
      </g>
      <g>
        <polygon class="cls-9" points="42.967 262.576 80.887 213.28 118.808 262.576 80.887 311.873 42.967 262.576"/>
        <path class="cls-2" d="M80.887,216.56l35.4,46.017-35.4,46.016-35.4-46.016,35.4-46.017m0-6.56L40.444,262.577l40.443,52.577,40.444-52.577L80.887,210Z"/>
      </g>
      <g>
        <polygon class="cls-7" points="84.949 212 157.713 212 121.332 259.296 84.949 212"/>
        <path class="cls-2" d="M153.651,214l-32.32,42.016L89.011,214h64.64m8.124-4H80.887l40.444,52.577L161.775,210Z"/>
      </g>
      <g>
        <polygon class="cls-4" points="84.949 208 121.332 160.703 157.713 208 84.949 208"/>
        <path class="cls-2" d="M121.331,163.984,153.651,206H89.011l32.32-42.016m0-6.561L80.887,210h80.888l-40.444-52.577Z"/>
      </g>
      <g>
        <polygon class="cls-7" points="4.062 212 76.826 212 40.444 259.296 4.062 212"/>
        <path class="cls-2" d="M72.764,214l-32.32,42.016L8.123,214H72.764m8.123-4H0l40.444,52.577L80.887,210Z"/>
      </g>
      <g>
        <polygon class="cls-4" points="4.062 208 40.444 160.703 76.826 208 4.062 208"/>
        <path class="cls-2" d="M40.444,163.984,72.764,206H8.123l32.321-42.016m0-6.561L0,210H80.887L40.444,157.423Z"/>
      </g>
      <g>
        <polygon class="cls-8" points="204.742 157.423 242.663 108.127 280.583 157.423 242.663 206.72 204.742 157.423"/>
        <path class="cls-2" d="M242.662,111.407l35.4,46.016-35.4,46.017-35.4-46.017,35.4-46.016m0-6.561-40.443,52.577L242.662,210l40.444-52.577-40.444-52.577Z"/>
      </g>
      <g>
        <polygon class="cls-10" points="204.742 262.576 242.663 213.28 280.583 262.576 242.663 311.873 204.742 262.576"/>
        <path class="cls-2" d="M242.662,216.56l35.4,46.017-35.4,46.016-35.4-46.016,35.4-46.017m0-6.56-40.443,52.577,40.443,52.577,40.444-52.577L242.662,210Z"/>
      </g>
      <g>
        <polygon class="cls-7" points="246.724 212 319.489 212 283.106 259.296 246.724 212"/>
        <path class="cls-2" d="M315.426,214l-32.32,42.016L250.786,214h64.64m8.124-4H242.662l40.444,52.577L323.55,210Z"/>
      </g>
      <g>
        <polygon class="cls-4" points="246.724 208 283.106 160.703 319.489 208 246.724 208"/>
        <path class="cls-2" d="M283.106,163.984,315.426,206h-64.64l32.32-42.016m0-6.561L242.662,210H323.55l-40.444-52.577Z"/>
      </g>
      <g>
        <polygon class="cls-7" points="165.836 212 238.601 212 202.218 259.296 165.836 212"/>
        <path class="cls-2" d="M234.539,214l-32.32,42.016L169.9,214h64.641m8.123-4H161.775l40.444,52.577L242.662,210Z"/>
      </g>
      <g>
        <polygon class="cls-4" points="165.836 208 202.218 160.703 238.601 208 165.836 208"/>
        <path class="cls-2" d="M202.219,163.984,234.539,206H169.9l32.321-42.016m0-6.561L161.775,210h80.887l-40.443-52.577Z"/>
      </g>
      <g>
        <polygon class="cls-11" points="123.855 262.576 161.775 213.28 199.695 262.576 161.775 311.873 123.855 262.576"/>
        <path class="cls-2" d="M161.775,216.56l35.4,46.017-35.4,46.016-35.4-46.016,35.4-46.017m0-6.56-40.444,52.577,40.444,52.577,40.444-52.577L161.775,210Z"/>
      </g>
      <g>
        <polygon class="cls-12" points="123.855 367.731 161.775 318.434 199.695 367.731 161.775 417.027 123.855 367.731"/>
        <path class="cls-2" d="M161.775,321.714l35.4,46.017-35.4,46.016-35.4-46.016,35.4-46.017m0-6.56-40.444,52.577,40.444,52.576,40.444-52.576-40.444-52.577Z"/>
      </g>
      <g>
        <polygon class="cls-7" points="165.836 317.154 238.601 317.154 202.218 364.45 165.836 317.154"/>
        <path class="cls-2" d="M234.539,319.154l-32.32,42.016L169.9,319.154h64.641m8.123-4H161.775l40.444,52.577,40.443-52.577Z"/>
      </g>
      <g>
        <polygon class="cls-4" points="165.836 313.154 202.218 265.857 238.601 313.154 165.836 313.154"/>
        <path class="cls-2" d="M202.219,269.137l32.32,42.017H169.9l32.321-42.017m0-6.56-40.444,52.577h80.887l-40.443-52.577Z"/>
      </g>
      <g>
        <polygon class="cls-7" points="84.949 317.154 157.713 317.154 121.332 364.45 84.949 317.154"/>
        <path class="cls-2" d="M153.651,319.154l-32.32,42.016-32.32-42.016h64.64m8.124-4H80.887l40.444,52.577,40.444-52.577Z"/>
      </g>
      <g>
        <polygon class="cls-4" points="84.949 313.154 121.332 265.857 157.713 313.154 84.949 313.154"/>
        <path class="cls-2" d="M121.331,269.137l32.32,42.017H89.011l32.32-42.017m0-6.56L80.887,315.154h80.888l-40.444-52.577Z"/>
      </g>
      <g>
        <polygon class="cls-5" points="123.855 52.269 161.775 2.973 199.695 52.269 161.775 101.566 123.855 52.269"/>
        <path class="cls-2" d="M161.775,6.253l35.4,46.016-35.4,46.017-35.4-46.017,35.4-46.016m0-6.56L121.331,52.269l40.444,52.577,40.444-52.577L161.775-.307Z"/>
      </g>
      <g>
        <polygon class="cls-6" points="123.855 157.423 161.775 108.127 199.695 157.423 161.775 206.72 123.855 157.423"/>
        <path class="cls-2" d="M161.775,111.407l35.4,46.016-35.4,46.017-35.4-46.017,35.4-46.016m0-6.561-40.444,52.577L161.775,210l40.444-52.577-40.444-52.577Z"/>
      </g>
      <g>
        <polygon class="cls-7" points="165.836 106.846 238.601 106.846 202.218 154.143 165.836 106.846"/>
        <path class="cls-2" d="M234.539,108.846l-32.32,42.017L169.9,108.846h64.641m8.123-4H161.775l40.444,52.577,40.443-52.577Z"/>
      </g>
      <g>
        <polygon class="cls-4" points="165.836 102.846 202.218 55.55 238.601 102.846 165.836 102.846"/>
        <path class="cls-2" d="M202.219,58.83l32.32,42.016H169.9L202.219,58.83m0-6.561-40.444,52.577h80.887L202.219,52.269Z"/>
      </g>
      <g>
        <polygon class="cls-7" points="84.949 106.846 157.713 106.846 121.332 154.143 84.949 106.846"/>
        <path class="cls-2" d="M153.651,108.846l-32.32,42.017-32.32-42.017h64.64m8.124-4H80.887l40.444,52.577,40.444-52.577Z"/>
      </g>
      <g>
        <polygon class="cls-4" points="84.949 102.846 121.332 55.55 157.713 102.846 84.949 102.846"/>
        <path class="cls-2" d="M121.331,58.83l32.32,42.016H89.011l32.32-42.016m0-6.561L80.887,104.846h80.888L121.331,52.269Z"/>
      </g>
    </g>
    <g>
      <g>
        <polygon class="cls-9" points="204.742 52.576 242.662 3.28 280.583 52.576 242.662 101.873 204.742 52.576"/>
        <path class="cls-2" d="M242.662,6.56l35.4,46.017-35.4,46.016-35.4-46.016,35.4-46.017m0-6.56L202.219,52.577l40.443,52.577,40.444-52.577L242.662,0Z"/>
      </g>
      <g>
        <polygon class="cls-7" points="246.724 2 319.488 2 283.107 49.296 246.724 2"/>
        <path class="cls-2" d="M315.426,4l-32.32,42.016L250.786,4h64.64m8.124-4H242.662l40.444,52.577L323.55,0Z"/>
      </g>
      <g>
        <polygon class="cls-7" points="165.837 2 238.601 2 202.219 49.296 165.837 2"/>
        <path class="cls-2" d="M234.539,4l-32.32,42.016L169.9,4h64.641m8.123-4H161.775l40.444,52.577L242.662,0Z"/>
      </g>
      <g>
        <polygon class="cls-11" points="285.63 52.576 323.55 3.28 361.47 52.576 323.55 101.873 285.63 52.576"/>
        <path class="cls-2" d="M323.55,6.56l35.4,46.017-35.4,46.016-35.4-46.016L323.55,6.56m0-6.56L283.106,52.577l40.444,52.577,40.444-52.577L323.55,0Z"/>
      </g>
      <g>
        <polygon class="cls-12" points="285.63 157.731 323.55 108.434 361.47 157.731 323.55 207.027 285.63 157.731"/>
        <path class="cls-2" d="M323.55,111.714l35.4,46.017-35.4,46.016-35.4-46.016,35.4-46.017m0-6.56-40.444,52.577,40.444,52.576,40.444-52.576L323.55,105.154Z"/>
      </g>
      <g>
        <polygon class="cls-7" points="246.724 107.154 319.488 107.154 283.107 154.45 246.724 107.154"/>
        <path class="cls-2" d="M315.426,109.154l-32.32,42.016-32.32-42.016h64.64m8.124-4H242.662l40.444,52.577,40.444-52.577Z"/>
      </g>
      <g>
        <polygon class="cls-4" points="246.724 103.154 283.107 55.857 319.488 103.154 246.724 103.154"/>
        <path class="cls-2" d="M283.106,59.137l32.32,42.017h-64.64l32.32-42.017m0-6.56-40.444,52.577H323.55L283.106,52.577Z"/>
      </g>
    </g>
    <g>
      <g>
        <polygon class="cls-10" points="42.967 52.576 80.888 3.28 118.808 52.576 80.888 101.873 42.967 52.576"/>
        <path class="cls-2" d="M80.887,6.56l35.4,46.017-35.4,46.016L45.49,52.577,80.887,6.56m0-6.56L40.444,52.577l40.443,52.577,40.444-52.577L80.887,0Z"/>
      </g>
      <g>
        <polygon class="cls-7" points="84.949 2 157.714 2 121.331 49.296 84.949 2"/>
        <path class="cls-2" d="M153.651,4l-32.32,42.016L89.011,4h64.64m8.124-4H80.887l40.444,52.577L161.775,0Z"/>
      </g>
      <g>
        <polygon class="cls-7" points="4.061 2 76.826 2 40.443 49.296 4.061 2"/>
        <path class="cls-2" d="M72.764,4,40.444,46.016,8.123,4H72.764m8.123-4H0L40.444,52.577,80.887,0Z"/>
      </g>
      <g>
        <polygon class="cls-11" points="-37.92 52.576 0 3.28 37.92 52.576 0 101.873 -37.92 52.576"/>
        <path class="cls-2" d="M0,6.56,35.4,52.577,0,98.593-35.4,52.577,0,6.56M0,0-40.444,52.577,0,105.154,40.444,52.577,0,0Z"/>
      </g>
      <g>
        <polygon class="cls-12" points="-37.92 157.731 0 108.434 37.92 157.731 0 207.027 -37.92 157.731"/>
        <path class="cls-2" d="M0,111.714l35.4,46.017L0,203.747l-35.4-46.016L0,111.714m0-6.56-40.444,52.577L0,210.307l40.444-52.576L0,105.154Z"/>
      </g>
      <g>
        <polygon class="cls-7" points="4.061 107.154 76.826 107.154 40.443 154.45 4.061 107.154"/>
        <path class="cls-2" d="M72.764,109.154,40.444,151.17,8.123,109.154H72.764m8.123-4H0l40.444,52.577,40.443-52.577Z"/>
      </g>
      <g>
        <polygon class="cls-4" points="4.061 103.154 40.443 55.857 76.826 103.154 4.061 103.154"/>
        <path class="cls-2" d="M40.444,59.137l32.32,42.017H8.123L40.444,59.137m0-6.56L0,105.154H80.887L40.444,52.577Z"/>
      </g>
    </g>
    <path class="cls-2" d="M161.775-98.286l35.4,46.017-35.4,46.016-35.4-46.016,35.4-46.017m0-6.56L121.331-52.269,161.775.307l40.444-52.576-40.444-52.577Z"/>
  </g>
</svg>
