<svg xmlns="http://www.w3.org/2000/svg" viewBox="0 0 173.665 197.085">
  <defs>
    <style>
      .cls-1 {
        fill: #e6e6e6;
      }

      .cls-2 {
        fill: #2b2a4f;
      }
    </style>
  </defs>
  <g id="base">
    <path class="cls-1" d="M137.75,178.649a112.541,112.541,0,0,1-7.846,11.944,25.8,25.8,0,0,1-11.287,4.682l-.107.018a125.211,125.211,0,0,1-42.213,0l-.107-.018A25.79,25.79,0,0,1,64.9,190.593a112.386,112.386,0,0,1-7.846-11.944"/>
  </g>
  <g id="body">
    <path class="cls-2" d="M50.628,171.891a226.577,226.577,0,0,1-4.993-40c-.248-10.676,12.483-33.8,18.157-44.06a3.578,3.578,0,0,0,.269-.521A119.831,119.831,0,0,0,70.61,66.2c1.5-6.847,6.6-12.672,13.492-14.111a25,25,0,0,1,4.67-.6h17.263a25,25,0,0,1,4.67.6C117.592,53.531,122.7,59.356,124.2,66.2a119.747,119.747,0,0,0,6.549,21.1,3.673,3.673,0,0,0,.268.521c5.675,10.259,18.406,33.384,18.158,44.06a226.577,226.577,0,0,1-4.993,40c-2.074,10.4-22.808,15.782-46.776,15.6h0C73.436,187.673,52.7,182.3,50.628,171.891Z"/>
    <path class="cls-2" d="M1.753,84.759A1.571,1.571,0,0,0,.714,87.633,53.13,53.13,0,0,1,11.65,96.738c6.361,7.341,2.936,30.83,9.787,42.575s23,21.043,26.915,22.022,8.32,2.447,8.32,2.447V128.547s-5.383,0-14.192-11.745a149.936,149.936,0,0,1-10.646-15.908,49.583,49.583,0,0,1-2.982-5.98c-.674-1.687-.663-4.354-2.238-5.378-3.131-2.036-8.261-2.4-11.86-3C10.44,85.812,6.1,85.253,1.753,84.759Z"/>
    <path class="cls-2" d="M128.11,55.75a7.524,7.524,0,0,1-7.5,7.5H74.2a7.524,7.524,0,0,1-7.5-7.5"/>
  </g>
  <g id="lid">
    <path class="cls-1" d="M68.632,55.75c0-7.391,12.881-13.383,28.771-13.383s28.772,5.992,28.772,13.383"/>
    <rect class="cls-1" x="93.338" y="32.396" width="8.131" height="13.963"/>
    <circle class="cls-1" cx="97.403" cy="32.902" r="7.629"/>
  </g>
  <g id="handle">
    <rect class="cls-2" x="142.105" y="106.296" width="7.734" height="27.275" rx="3.629" transform="translate(-31.798 55.982) rotate(-19.621)"/>
    <path class="cls-2" d="M173.574,78.22a64.04,64.04,0,0,1-7.06,25.97,74.406,74.406,0,0,1-6.03,9.78l-7.85,12.92v1.21c-.43-1.24-.86-2.47-1.3-3.71q-1.6-4.62-3.23-9.24c-.55-1.58-1.1-3.15-1.65-4.73a13.329,13.329,0,0,0,1.55-.24,6.446,6.446,0,0,0,3.682-1.85c2.233-2.557,3.572-5.706,4.868-8.81a89.34,89.34,0,0,0,6.18-22.29,59.566,59.566,0,0,0-1.16-23.16,63.269,63.269,0,0,0-10.19-21.18,69.077,69.077,0,0,0-17.24-16.59,82.359,82.359,0,0,0-22.01-10.57c-.98-.3-1.96-.65-2.95-.93l-3.01-.73-3.02-.74c-1.01-.25-2.04-.37-3.06-.56l-3.07-.55-1.54-.27c-.51-.08-1.03-.12-1.55-.18l-6.22-.67-.04-.01A.546.546,0,0,1,87.744,0l6.33.06c.53.01,1.06,0,1.59.03l1.58.12,3.17.25c1.05.1,2.12.14,3.17.31l3.15.49,3.16.5c1.05.19,2.08.47,3.12.7a86.815,86.815,0,0,1,24.05,9.17,75.43,75.43,0,0,1,20.08,16.75,71.358,71.358,0,0,1,12.87,23.2A75.1,75.1,0,0,1,173.574,78.22Z"/>
  </g>
</svg>
