<svg id="Layer_6" data-name="Layer 6" xmlns="http://www.w3.org/2000/svg" viewBox="0 0 153.159 153.397">
  <defs>
    <style>
      .cls-1 {
        fill: #f2f2f7;
      }
    </style>
  </defs>
  <g>
    <rect class="cls-1" x="81.862" y="44.442" width="35.194" height="18.132" transform="translate(66.967 -54.656) rotate(45)"/>
    <path class="cls-1" d="M129.724,20.258a6.933,6.933,0,1,0,3.259,3.29L151.777,4.926l1.382,1.395L137.348,49.237l-14.839,6.2-24.77-25,6.34-14.773L147.138.244l1.379,1.392Z"/>
  </g>
  <g>
    <rect class="cls-1" x="35.666" y="90.631" width="35.194" height="18.132" transform="translate(86.097 -8.462) rotate(45)"/>
    <path class="cls-1" d="M20.014,129.962a6.931,6.931,0,1,1,3.289,3.259L4.681,152.015l1.4,1.382,42.915-15.811,6.2-14.839-25-24.77-14.773,6.34L0,147.376l1.392,1.379Z"/>
  </g>
  <g>
    <rect class="cls-1" x="35.67" y="44.634" width="35.194" height="18.132" transform="translate(-22.37 53.394) rotate(-45)"/>
    <path class="cls-1" d="M20.017,23.435a6.928,6.928,0,1,0,3.289-3.259L4.685,1.382,6.08,0,49,15.811l6.2,14.839-25,24.77L15.42,49.081,0,6.021,1.4,4.642Z"/>
  </g>
  <g>
    <rect class="cls-1" x="81.859" y="90.83" width="35.194" height="18.132" transform="translate(-41.507 99.585) rotate(-45)"/>
    <path class="cls-1" d="M129.721,133.145a6.928,6.928,0,1,1,3.259-3.289l18.794,18.622,1.382-1.4-15.811-42.916-14.839-6.2-24.77,25,6.339,14.773,43.06,15.417,1.379-1.392Z"/>
  </g>
</svg>
