<svg xmlns="http://www.w3.org/2000/svg" xmlns:xlink="http://www.w3.org/1999/xlink" viewBox="0 0 111.178 279.944">
  <defs>
    <style>
      .cls-1 {
        isolation: isolate;
      }

      .cls-11, .cls-2 {
        fill: #e2312a;
      }

      .cls-3, .cls-4 {
        fill: none;
      }

      .cls-3 {
        stroke: #e2312a;
        stroke-linecap: square;
        stroke-linejoin: bevel;
        stroke-width: 4px;
      }

      .cls-11, .cls-4 {
        stroke: #aa2520;
        stroke-miterlimit: 10;
      }

      .cls-5 {
        fill: url(#linear-gradient);
      }

      .cls-6 {
        fill: #dfe5e5;
        opacity: 0.62;
        mix-blend-mode: luminosity;
      }

      .cls-7 {
        fill: #343a3a;
        mix-blend-mode: overlay;
      }

      .cls-8 {
        fill: #aa2520;
      }

      .cls-9 {
        fill: #b3b3b3;
      }

      .cls-10 {
        fill: #666;
      }

      .cls-12 {
        fill: #f2f2f2;
      }

      .cls-13 {
        fill: #545460;
      }

      .cls-14 {
        fill: #390c0a;
      }

      .cls-15 {
        fill: #b28749;
      }
    </style>
    <linearGradient id="linear-gradient" x1="100.644" y1="237.194" x2="10.775" y2="81.536" gradientUnits="userSpaceOnUse">
      <stop offset="0.001" stop-color="#acf3f7"/>
      <stop offset="0.541" stop-color="#a0daea"/>
      <stop offset="1" stop-color="#95c2dd"/>
    </linearGradient>
  </defs>
  <g class="cls-1">
    <g id="phone_box" data-name="phone box">
      <path id="base" class="cls-2" d="M1.957,271.982H109.221a1.957,1.957,0,0,1,1.957,1.957v6.006a0,0,0,0,1,0,0H0a0,0,0,0,1,0,0v-6.006A1.957,1.957,0,0,1,1.957,271.982Z"/>
      <path id="arch" class="cls-2" d="M106.551,13.983a115.837,115.837,0,0,0-101.924,0V57.022a115.837,115.837,0,0,1,101.924,0Z"/>
      <path id="roof" class="cls-3" d="M4.627,13.983a114.335,114.335,0,0,1,101.924,0"/>
      <path id="body" class="cls-2" d="M5.232,44.756H105.946a2.066,2.066,0,0,1,2.066,2.066v225.16a0,0,0,0,1,0,0H3.166a0,0,0,0,1,0,0V46.822A2.066,2.066,0,0,1,5.232,44.756Z"/>
      <g id="door">
        <g id="glass">
          <rect class="cls-4" x="11.427" y="57.022" width="88.323" height="214.96"/>
          <rect class="cls-4" x="23.37" y="69.537" width="64.438" height="179.659"/>
          <path class="cls-5" d="M75.22,183.885v-.5H36.2v20.46H77.43v-19.96Zm0,0v-.5H36.2v20.46H77.43v-19.96Zm0,0v-.5H36.2v20.46H77.43v-19.96Zm0,0v-.5H36.2v20.46H77.43v-19.96Zm0,0v-.5H36.2v20.46H77.43v-19.96Zm0-22.67v-.5H36.2v20.46H77.43v-19.96ZM34,182.885v20.96H77.43v-20.96Zm41.22-21.67v-.5H36.2v20.46H77.43v-19.96ZM34,182.885v20.96H77.43v-20.96Zm41.22-21.67v-.5H36.2v20.46H77.43v-19.96ZM34,182.885v20.96H77.43v-20.96Zm41.22-21.67v-.5H36.2v20.46H77.43v-19.96ZM34,182.885v20.96H77.43v-20.96Zm41.22-21.67v-.5H36.2v20.46H77.43v-19.96ZM34,182.885v20.96H77.43v-20.96Zm41.22-44.33v-.5H36.2v20.46H77.43v-19.96ZM34,160.215v20.96H77.43v-20.96Zm0,22.67v20.96H77.43v-20.96Zm41.22-44.33v-.5H36.2v20.46H77.43v-19.96ZM34,160.215v20.96H77.43v-20.96Zm0,22.67v20.96H77.43v-20.96Zm41.22-44.33v-.5H36.2v20.46H77.43v-19.96ZM34,160.215v20.96H77.43v-20.96Zm0,22.67v20.96H77.43v-20.96Zm41.22-44.33v-.5H36.2v20.46H77.43v-19.96ZM34,160.215v20.96H77.43v-20.96Zm0,22.67v20.96H77.43v-20.96Zm41.22-44.33v-.5H36.2v20.46H77.43v-19.96ZM34,160.215v20.96H77.43v-20.96Zm0,22.67v20.96H77.43v-20.96Zm41.22-67v-.5H36.2v20.46H77.43v-19.96ZM34,137.555v20.96H77.43v-20.96Zm0,22.66v20.96H77.43v-20.96Zm0,22.67v20.96H77.43v-20.96Zm41.22-67v-.5H36.2v20.46H77.43v-19.96ZM34,137.555v20.96H77.43v-20.96Zm0,22.66v20.96H77.43v-20.96Zm0,22.67v20.96H77.43v-20.96Zm41.22-67v-.5H36.2v20.46H77.43v-19.96ZM34,137.555v20.96H77.43v-20.96Zm0,22.66v20.96H77.43v-20.96Zm0,22.67v20.96H77.43v-20.96Zm41.22-67v-.5H36.2v20.46H77.43v-19.96ZM34,137.555v20.96H77.43v-20.96Zm0,22.66v20.96H77.43v-20.96Zm0,22.67v20.96H77.43v-20.96Zm41.22-67v-.5H36.2v20.46H77.43v-19.96ZM34,137.555v20.96H77.43v-20.96Zm0,22.66v20.96H77.43v-20.96Zm0,22.67v20.96H77.43v-20.96Zm41.22-89.67v-.5H36.2v20.46H77.43V93.215ZM34,114.885v20.96H77.43v-20.96Zm0,22.67v20.96H77.43v-20.96Zm0,22.66v20.96H77.43v-20.96Zm0,22.67v20.96H77.43v-20.96Zm41.22-89.67v-.5H36.2v20.46H77.43V93.215ZM34,114.885v20.96H77.43v-20.96Zm0,22.67v20.96H77.43v-20.96Zm0,22.66v20.96H77.43v-20.96Zm0,22.67v20.96H77.43v-20.96Zm41.22-89.67v-.5H36.2v20.46H77.43V93.215ZM34,114.885v20.96H77.43v-20.96Zm0,22.67v20.96H77.43v-20.96Zm0,22.66v20.96H77.43v-20.96Zm0,22.67v20.96H77.43v-20.96Zm41.22-89.67v-.5H36.2v20.46H77.43V93.215ZM34,114.885v20.96H77.43v-20.96Zm0,22.67v20.96H77.43v-20.96Zm0,22.66v20.96H77.43v-20.96Zm0,22.67v20.96H77.43v-20.96Zm41.22-89.67v-.5H36.2v20.46H77.43V93.215ZM34,114.885v20.96H77.43v-20.96Zm0,22.67v20.96H77.43v-20.96Zm0,22.66v20.96H77.43v-20.96Zm0,22.67v20.96H77.43v-20.96Zm-7.72-110.3v173.56H85.14V72.585Zm.5,19.63v-1.7H84.64v1.7Zm57.86,113.34H26.78v-1.71H84.64Zm0-22.67H26.78v-1.71H84.64Zm0-22.67H26.78v-1.7H84.64Zm0-22.66H26.78v-1.71H84.64Zm0-22.67H26.78v-1.71H84.64Zm-50.64,68v20.96H77.43v-20.96Zm0-22.67v20.96H77.43v-20.96Zm0-22.66v20.96H77.43v-20.96Zm0-22.67v20.96H77.43v-20.96Zm41.22-21.67v-.5H36.2v20.46H77.43V93.215ZM34,182.885v20.96H77.43v-20.96Zm0-22.67v20.96H77.43v-20.96Zm0-22.66v20.96H77.43v-20.96Zm0-22.67v20.96H77.43v-20.96Zm41.22-21.67v-.5H36.2v20.46H77.43V93.215ZM34,182.885v20.96H77.43v-20.96Zm0-22.67v20.96H77.43v-20.96Zm0-22.66v20.96H77.43v-20.96Zm0-22.67v20.96H77.43v-20.96Zm41.22-21.67v-.5H36.2v20.46H77.43V93.215ZM34,182.885v20.96H77.43v-20.96Zm0-22.67v20.96H77.43v-20.96Zm0-22.66v20.96H77.43v-20.96Zm0-22.67v20.96H77.43v-20.96Zm41.22-21.67v-.5H36.2v20.46H77.43V93.215ZM34,114.885v20.96H77.43v-20.96Zm41.22-21.67v-.5H36.2v20.46H77.43V93.215ZM34,182.885v20.96H77.43v-20.96Zm0-22.67v20.96H77.43v-20.96Zm0-22.66v20.96H77.43v-20.96Zm0,45.33v20.96H77.43v-20.96Zm0-22.67v20.96H77.43v-20.96Zm0-22.66v20.96H77.43v-20.96Zm41.22-21.67v-.5H36.2v20.46H77.43v-19.96Zm-41.22,67v20.96H77.43v-20.96Zm0-22.67v20.96H77.43v-20.96Zm0-22.66v20.96H77.43v-20.96Zm41.22-21.67v-.5H36.2v20.46H77.43v-19.96Zm-41.22,67v20.96H77.43v-20.96Zm0-22.67v20.96H77.43v-20.96Zm0-22.66v20.96H77.43v-20.96Zm41.22-21.67v-.5H36.2v20.46H77.43v-19.96Zm-41.22,67v20.96H77.43v-20.96Zm0-22.67v20.96H77.43v-20.96Zm0-22.66v20.96H77.43v-20.96Zm41.22-21.67v-.5H36.2v20.46H77.43v-19.96ZM34,137.555v20.96H77.43v-20.96Zm41.22-21.67v-.5H36.2v20.46H77.43v-19.96Zm-41.22,67v20.96H77.43v-20.96Zm0-22.67v20.96H77.43v-20.96Zm0,22.67v20.96H77.43v-20.96Zm0-22.67v20.96H77.43v-20.96Zm41.22-21.66v-.5H36.2v20.46H77.43v-19.96ZM34,182.885v20.96H77.43v-20.96Zm0-22.67v20.96H77.43v-20.96Zm41.22-21.66v-.5H36.2v20.46H77.43v-19.96ZM34,182.885v20.96H77.43v-20.96Zm0-22.67v20.96H77.43v-20.96Zm41.22-21.66v-.5H36.2v20.46H77.43v-19.96ZM34,182.885v20.96H77.43v-20.96Zm0-22.67v20.96H77.43v-20.96Zm41.22-21.66v-.5H36.2v20.46H77.43v-19.96ZM34,160.215v20.96H77.43v-20.96Zm41.22-21.66v-.5H36.2v20.46H77.43v-19.96ZM34,182.885v20.96H77.43v-20.96Zm0,0v20.96H77.43v-20.96Zm41.22-21.67v-.5H36.2v20.46H77.43v-19.96ZM34,182.885v20.96H77.43v-20.96Zm41.22-21.67v-.5H36.2v20.46H77.43v-19.96ZM34,182.885v20.96H77.43v-20.96Zm41.22-21.67v-.5H36.2v20.46H77.43v-19.96ZM34,182.885v20.96H77.43v-20.96Zm41.22-21.67v-.5H36.2v20.46H77.43v-19.96ZM34,182.885v20.96H77.43v-20.96Zm41.22-21.67v-.5H36.2v20.46H77.43v-19.96Zm0,22.67v-.5H36.2v20.46H77.43v-19.96Zm0,0v-.5H36.2v20.46H77.43v-19.96Zm0,0v-.5H36.2v20.46H77.43v-19.96Zm0,0v-.5H36.2v20.46H77.43v-19.96Zm0,0v-.5H36.2v20.46H77.43v-19.96Z"/>
          <polygon class="cls-6" points="26.28 226.015 46.576 226.015 84.23 72.454 63.933 72.454 26.28 226.015"/>
          <rect class="cls-7" x="26.12" y="72.574" width="2.966" height="173.571"/>
          <path class="cls-8" d="M25.78,72.085v174.56H85.64V72.085Zm58.86,173.56H26.78V73.085H84.64Z"/>
        </g>
        <g id="Layer_12" data-name="Layer 12">
          <g>
            <path class="cls-2" d="M26.28,90.015v2.7H85.14v-2.7Zm58.36,2.2H26.78v-1.7H84.64Z"/>
            <path class="cls-8" d="M35.7,92.215v.5H75.22v-.5Zm0,0v.5H75.22v-.5Zm0,0v.5H75.22v-.5Zm0,0v.5H75.22v-.5Zm-9.92-2.7v3.7H85.64v-3.7Zm1,1H84.64v1.7H26.78Zm8.92,1.7v.5H75.22v-.5Zm0,0v.5H75.22v-.5Zm0,0v.5H75.22v-.5Zm0,0v.5H75.22v-.5Zm0,0v.5H75.22v-.5Z"/>
            <rect class="cls-2" x="26.78" y="90.515" width="57.86" height="1.7"/>
          </g>
          <g>
            <path class="cls-2" d="M26.28,226.015v2.7H85.14v-2.7Zm58.36,2.2H26.78v-1.7H84.64Z"/>
            <path class="cls-8" d="M25.78,225.515v3.7H85.64v-3.7Zm58.86,2.7H26.78v-1.7H84.64Z"/>
            <rect class="cls-2" x="26.78" y="226.515" width="57.86" height="1.7"/>
          </g>
          <g>
            <path class="cls-2" d="M26.28,203.345v2.71H85.14v-2.71Zm58.36,2.21H26.78v-1.71H84.64Z"/>
            <path class="cls-8" d="M25.78,202.845v3.71H85.64v-3.71Zm1,1H84.64v1.71H26.78Z"/>
            <rect class="cls-2" x="26.78" y="203.845" width="57.86" height="1.71"/>
          </g>
          <g>
            <path class="cls-2" d="M26.28,180.675v2.71H85.14v-2.71Zm58.36,2.21H26.78v-1.71H84.64Z"/>
            <path class="cls-8" d="M35.7,182.885v.5H75.22v-.5Zm0,0v.5H75.22v-.5Zm0,0v.5H75.22v-.5Zm0,0v.5H75.22v-.5Zm-9.92-2.71v3.71H85.64v-3.71Zm1,1H84.64v1.71H26.78Zm8.92,1.71v.5H75.22v-.5Zm0,0v.5H75.22v-.5Zm0,0v.5H75.22v-.5Zm0,0v.5H75.22v-.5Zm0,0v.5H75.22v-.5Z"/>
            <rect class="cls-2" x="26.78" y="181.175" width="57.86" height="1.71"/>
          </g>
          <g>
            <path class="cls-2" d="M26.28,158.015v2.7H85.14v-2.7Zm58.36,2.2H26.78v-1.7H84.64Z"/>
            <path class="cls-8" d="M35.7,160.215v.5H75.22v-.5Zm0,0v.5H75.22v-.5Zm0,0v.5H75.22v-.5Zm0,0v.5H75.22v-.5Zm-9.92-2.7v3.7H85.64v-3.7Zm1,1H84.64v1.7H26.78Zm8.92,1.7v.5H75.22v-.5Zm0,0v.5H75.22v-.5Zm0,0v.5H75.22v-.5Zm0,0v.5H75.22v-.5Zm0,0v.5H75.22v-.5Z"/>
            <rect class="cls-2" x="26.78" y="158.515" width="57.86" height="1.7"/>
          </g>
          <g>
            <path class="cls-2" d="M26.28,135.345v2.71H85.14v-2.71Zm58.36,2.21H26.78v-1.71H84.64Z"/>
            <path class="cls-8" d="M35.7,137.555v.5H75.22v-.5Zm0,0v.5H75.22v-.5Zm0,0v.5H75.22v-.5Zm0,0v.5H75.22v-.5Zm-9.92-2.71v3.71H85.64v-3.71Zm1,1H84.64v1.71H26.78Zm8.92,1.71v.5H75.22v-.5Zm0,0v.5H75.22v-.5Zm0,0v.5H75.22v-.5Zm0,0v.5H75.22v-.5Zm0,0v.5H75.22v-.5Z"/>
            <rect class="cls-2" x="26.78" y="135.845" width="57.86" height="1.71"/>
          </g>
          <g>
            <path class="cls-2" d="M26.28,112.675v2.71H85.14v-2.71Zm58.36,2.21H26.78v-1.71H84.64Z"/>
            <path class="cls-8" d="M35.7,114.885v.5H75.22v-.5Zm0,0v.5H75.22v-.5Zm0,0v.5H75.22v-.5Zm0,0v.5H75.22v-.5Zm-9.92-2.71v3.71H85.64v-3.71Zm1,1H84.64v1.71H26.78Zm8.92,1.71v.5H75.22v-.5Zm0,0v.5H75.22v-.5Zm0,0v.5H75.22v-.5Zm0,0v.5H75.22v-.5Zm0,0v.5H75.22v-.5Z"/>
            <rect class="cls-2" x="26.78" y="113.175" width="57.86" height="1.71"/>
          </g>
          <g>
            <rect class="cls-2" x="33.5" y="228.215" width="2.7" height="17.93"/>
            <rect class="cls-2" x="33.5" y="205.555" width="2.7" height="20.96"/>
            <rect class="cls-2" x="33.5" y="182.885" width="2.7" height="20.96"/>
            <rect class="cls-2" x="33.5" y="160.215" width="2.7" height="20.96"/>
            <rect class="cls-2" x="33.5" y="137.555" width="2.7" height="20.96"/>
            <rect class="cls-2" x="33.5" y="114.885" width="2.7" height="20.96"/>
            <rect class="cls-2" x="33.5" y="92.215" width="2.7" height="20.96"/>
            <rect class="cls-2" x="33.5" y="72.585" width="2.7" height="17.93"/>
            <path class="cls-8" d="M35.7,228.215v17.43H34v-17.43H33v18.43h3.7v-18.43Zm0-44.83v20.46h.5v-20.46Zm0-68.5v20.96h1v-20.96Zm0,.5v20.46h.5v-20.46Zm-2.7-.5v20.96h1v-20.96Zm2.7,0v20.96h.5v-20.46h.5v-.5Zm0,.5v20.46h.5v-20.46Zm0-22.67v20.46h.5V92.715Zm0,0v20.46h.5V92.715Zm0,0v20.46h.5V92.715Zm0-.5v20.96h.5V92.715h.5v-.5Zm-2.7,0v20.96h1V92.215Zm2.7.5v20.46h.5V92.715Zm0,0v20.46h.5V92.715Zm0,0v20.46h.5V92.715Zm0-.5v20.96h1V92.215ZM33,72.085v18.43h1V73.085h1.7v17.43h1V72.085Zm2.7,43.3v20.46h.5v-20.46Zm0,22.17v20.96h1v-20.96Zm0,.5v20.46h.5v-20.46Zm0,0v20.46h.5v-20.46Zm0,0v20.46h.5v-20.46Zm-2.7-.5v20.96h1v-20.96Zm2.7,0v20.96h.5v-20.46h.5v-.5Zm0,.5v20.46h.5v-20.46Zm0,0v20.46h.5v-20.46Zm0,0v20.46h.5v-20.46Zm0,22.16v20.96h1v-20.96Zm0,.5v20.46h.5v-20.46Zm0-.5v20.96h.5v-20.46h.5v-.5Zm-2.7,0v20.96h1v-20.96Zm2.7.5v20.46h.5v-20.46Zm0,0v20.46h.5v-20.46Zm0,22.67v20.46h.5v-20.46Zm0-.5v20.96h.5v-20.46h.5v-.5Zm-2.7,0v20.96h1v-20.96Zm2.7.5v20.46h.5v-20.46Zm0-.5v20.96h1v-20.96ZM33,205.555v20.96h1v-20.96Zm2.7,0v20.96h1v-20.96Z"/>
          </g>
          <g>
            <rect class="cls-2" x="75.22" y="228.215" width="2.71" height="17.93"/>
            <rect class="cls-2" x="75.22" y="205.555" width="2.71" height="20.96"/>
            <rect class="cls-2" x="75.22" y="182.885" width="2.71" height="20.96"/>
            <rect class="cls-2" x="75.22" y="160.215" width="2.71" height="20.96"/>
            <rect class="cls-2" x="75.22" y="137.555" width="2.71" height="20.96"/>
            <rect class="cls-2" x="75.22" y="114.885" width="2.71" height="20.96"/>
            <rect class="cls-2" x="75.22" y="92.215" width="2.71" height="20.96"/>
            <rect class="cls-2" x="75.22" y="72.585" width="2.71" height="17.93"/>
            <path class="cls-8" d="M77.43,228.215v17.43H75.72v-17.43h-1v18.43h3.71v-18.43Zm-2.21-45.33v1h.5v-1Zm0,0v1h.5v-1Zm0,0v1h.5v-1Zm2.21,0v20.96h1v-20.96Zm-2.21,0v1h.5v-1Zm0,0v1h.5v-1Zm0,0v1h.5v-1Zm0,0v1h.5v-1Zm-.5,0v20.96h1v-20.96Zm.5-45.33v1h.5v-1Zm0,0v1h.5v-1Zm2.21,0v20.96h1v-20.96Zm-2.21,0v1h.5v-1Zm0,0v1h.5v-1Zm-.5,0v20.96h1v-20.96Zm.5-22.67v1h.5v-1Zm0,0v1h.5v-1Zm0,0v1h.5v-1Zm2.21,0v20.96h1v-20.96Zm-2.21,0v1h.5v-1Zm0,0v1h.5v-1Zm0,0v1h.5v-1Zm0,0v1h.5v-1Zm-.5,0v20.96h1v-20.96Zm0-42.8v18.43h1V73.085h1.71v17.43h1V72.085Zm0,20.13v20.96h1V92.215Zm.5,0v1h.5v-1Zm0,0v1h.5v-1Zm2.21,0v20.96h1V92.215Zm-2.21,1h.5v-1h-.5Zm0-1v1h.5v-1Zm-.5,68v20.96h1v-20.96Zm.5,0v1h.5v-1Zm0,0v1h.5v-1Zm0,0v1h.5v-1Zm0,0v1h.5v-1Zm2.21,0v20.96h1v-20.96Zm-2.21,0v1h.5v-1Zm0,0v1h.5v-1Zm0,0v1h.5v-1Zm-.5,45.34v20.96h1v-20.96Zm2.71,0v20.96h1v-20.96Z"/>
          </g>
          <g id="Layer_15" data-name="Layer 15">
            <rect class="cls-2" x="25.629" y="90.381" width="1.7" height="1.969" transform="translate(-64.886 117.844) rotate(-90)"/>
            <rect class="cls-2" x="25.629" y="113.046" width="1.7" height="1.969" transform="translate(-87.551 140.509) rotate(-90)"/>
            <rect class="cls-2" x="25.629" y="135.716" width="1.7" height="1.969" transform="translate(-110.221 163.179) rotate(-90)"/>
            <rect class="cls-2" x="25.629" y="158.382" width="1.7" height="1.969" transform="translate(-132.887 185.846) rotate(-90)"/>
            <rect class="cls-2" x="25.629" y="181.046" width="1.7" height="1.969" transform="translate(-155.551 208.509) rotate(-90)"/>
            <rect class="cls-2" x="25.629" y="203.716" width="1.7" height="1.969" transform="translate(-178.221 231.179) rotate(-90)"/>
            <rect class="cls-2" x="25.629" y="226.381" width="1.7" height="1.969" transform="translate(-200.886 253.844) rotate(-90)"/>
            <rect class="cls-2" x="84.364" y="226.381" width="1.7" height="1.969" transform="translate(-142.151 312.579) rotate(-90)"/>
            <rect class="cls-2" x="84.364" y="203.716" width="1.7" height="1.969" transform="translate(-119.486 289.914) rotate(-90)"/>
            <rect class="cls-2" x="84.364" y="181.046" width="1.7" height="1.969" transform="translate(-96.816 267.244) rotate(-90)"/>
            <rect class="cls-2" x="84.364" y="158.381" width="1.7" height="1.969" transform="translate(-74.151 244.579) rotate(-90)"/>
            <rect class="cls-2" x="84.364" y="135.716" width="1.7" height="1.969" transform="translate(-51.486 221.914) rotate(-90)"/>
            <rect class="cls-2" x="84.364" y="113.046" width="1.7" height="1.969" transform="translate(-28.816 199.244) rotate(-90)"/>
            <rect class="cls-2" x="84.364" y="90.381" width="1.7" height="1.969" transform="translate(-6.151 176.579) rotate(-90)"/>
            <rect class="cls-2" x="34" y="71.589" width="1.7" height="1.969"/>
            <rect class="cls-2" x="75.725" y="71.47" width="1.7" height="1.969"/>
            <rect class="cls-2" x="75.725" y="245.161" width="1.7" height="1.969"/>
            <rect class="cls-2" x="34" y="245.161" width="1.7" height="1.969"/>
          </g>
        </g>
        <g id="Layer_9" data-name="Layer 9">
          <g>
            <path class="cls-9" d="M93.971,153.809c-2.028,0-3.617-2.537-3.617-5.776s1.589-5.776,3.617-5.776,3.617,2.537,3.617,5.776S96,153.809,93.971,153.809Z"/>
            <path class="cls-8" d="M93.971,142.758c1.722,0,3.118,2.361,3.118,5.275s-1.4,5.276-3.118,5.276-3.117-2.362-3.117-5.276,1.4-5.275,3.117-5.275m0-1c-2.309,0-4.117,2.756-4.117,6.275s1.808,6.276,4.117,6.276,4.118-2.757,4.118-6.276-1.809-6.275-4.118-6.275Z"/>
          </g>
          <path class="cls-10" d="M93.971,142.758c1.722,0,3.118,2.361,3.118,5.275s-1.4,5.276-3.118,5.276"/>
        </g>
        <g id="Layer_14" data-name="Layer 14">
          <rect class="cls-11" x="77.925" y="138.053" width="7.213" height="19.96"/>
          <g>
            <path class="cls-12" d="M82.869,141.744a.851.851,0,0,1-.143.5,1.122,1.122,0,0,1-.4.341,1.542,1.542,0,0,1-.448.144,3.019,3.019,0,0,1-.468.05l0,.6H80.341c0-.172,0-.356,0-.553s0-.48,0-.85c0-.154,0-.341,0-.559s0-.436,0-.654l.267,0,.321,0a7.758,7.758,0,0,1,.781.028,2.121,2.121,0,0,1,.479.108,1.117,1.117,0,0,1,.5.328A.779.779,0,0,1,82.869,141.744Zm-1.094.094a.355.355,0,0,0-.034-.155.282.282,0,0,0-.1-.119.3.3,0,0,0-.121-.048.7.7,0,0,0-.121-.01h-.041v.7H81.4a.528.528,0,0,0,.117-.016.337.337,0,0,0,.222-.158A.4.4,0,0,0,81.775,141.838Z"/>
            <path class="cls-12" d="M82.93,144.772c0,.235,0,.408,0,.518s0,.222,0,.333c0,.15,0,.279,0,.39s0,.2,0,.281a1.135,1.135,0,0,1-.12.545.974.974,0,0,1-.306.351,1.522,1.522,0,0,1-.449.216,2.034,2.034,0,0,1-.518.059,1.808,1.808,0,0,1-.593-.08,1.533,1.533,0,0,1-.4-.209.962.962,0,0,1-.3-.363,1.217,1.217,0,0,1-.106-.538c0-.077,0-.171,0-.281s0-.241,0-.39,0-.257,0-.345,0-.25,0-.487h1.072c0,.214,0,.388,0,.52s0,.239,0,.313c0,.109,0,.213,0,.31s0,.2,0,.305a.419.419,0,0,0,.09.29.307.307,0,0,0,.236.1.3.3,0,0,0,.235-.1.426.426,0,0,0,.088-.288c0-.1,0-.214,0-.324s0-.208,0-.291,0-.183,0-.309,0-.3,0-.524Z"/>
            <path class="cls-12" d="M82.727,151.387h-2.2q0-.317,0-.741c0-.283,0-.5,0-.648,0-.306,0-.569,0-.788s0-.366,0-.438H81.6c0,.144,0,.3,0,.457s0,.342,0,.545c0,.127,0,.267,0,.423s0,.259,0,.311h1.127Z"/>
            <path class="cls-12" d="M82.727,155.386h-2.2q0-.316,0-.741c0-.283,0-.5,0-.648,0-.305,0-.568,0-.788s0-.365,0-.438H81.6c0,.144,0,.3,0,.457s0,.342,0,.545c0,.126,0,.267,0,.423s0,.259,0,.311h1.127Z"/>
          </g>
        </g>
      </g>
      <g id="hinges">
        <rect class="cls-13" x="10.198" y="72.589" width="2.458" height="18.885" rx="0.777"/>
        <rect class="cls-13" x="10.198" y="155.089" width="2.458" height="18.885" rx="0.777"/>
        <rect class="cls-13" x="10.198" y="237.589" width="2.458" height="18.885" rx="0.777"/>
      </g>
      <g id="label">
        <g>
          <rect class="cls-12" x="17.031" y="26.555" width="77.116" height="13" rx="1.159"/>
          <path class="cls-8" d="M92.987,27.055a.662.662,0,0,1,.66.659V38.4a.662.662,0,0,1-.66.659H18.19a.662.662,0,0,1-.659-.659V27.714a.662.662,0,0,1,.659-.659h74.8m0-1H18.19a1.662,1.662,0,0,0-1.659,1.659V38.4a1.661,1.661,0,0,0,1.659,1.659h74.8a1.661,1.661,0,0,0,1.66-1.659V27.714a1.662,1.662,0,0,0-1.66-1.659Z"/>
        </g>
        <g>
          <path class="cls-14" d="M22.749,36.929l-.187-.055-.066-.2.077-.77.011-.242v-.231l.011-.242.033-.694v-.23l.011-.231v-.452l-.022-.318.033-.253-.044-.308-.011-.32v-.352l-.033-.22.011-.176-.033-.209v-.143l-.033-.253-.011-.187-.044-.429-.033-.231-.11-.253-.319-.011-.3.033-.264.022-.2.022-.2.044-.319.088-.209.033-.132-.077-.022-.11.143-.209.231-.341.319-.088.308.011h.209l.231.033.231-.033.308.011.968-.022.9.022.33.022.165-.033h.285l.936-.011h.275l.077.077-.067.275-.109.209-.2.165-.286-.022-.4-.066-.33-.033-.408-.022h-.3l-.066.231-.067.462L24,31.087l-.032.484-.022.242-.012.242-.011.363-.011.265-.022.263v.99l.011.287.045.33-.023.275.055.2.022.4.044.374.044.407.045.4-.045.275-.319.044-.627-.011-.209.044Z"/>
          <path class="cls-14" d="M31.8,36.951,29.2,36.94l-.616.044-.187-.143.022-.2.044-.242.022-.165.011-.22.044-.231v-.231l.022-.287.033-.318v-.573l.022-.352.033-.4v-.649l-.022-.473-.044-.451-.022-.209-.011-.2-.055-.418-.055-.275-.011-.264-.033-.209-.088-.418-.077-.374.077-.209.187-.044h2.783l.44-.022.209.011.342-.022.286.033.33-.044.253.1-.111.352-.285.22-.342-.077-.231-.033-.891-.088-.22-.011h-.429l-.451.044-.264.088-.022.286v.407l-.011.352-.044.308.022.242.2.077,1.034-.011h.363l.671-.033.3.055.055.1L32.418,32l-.11.374-.209.1-.264-.067-.2-.055-.187-.043-.605-.1-.2-.022-.33-.033-.418-.022-.11.077-.011.319v2.035l.011.221v.407l.033.286.011.22.011.385.022.319.1.066h.968l.429-.011.2-.011.2-.022.363-.066.4-.088.331-.1.187-.011.087.044.022.176-.088.33-.1.231-.066.055h-.759Z"/>
          <path class="cls-14" d="M39.492,36.951h-.43l-.2-.022-.187-.011H35.641l-.11-.033-.033-.11.044-.286.033-.22.055-.462.033-.253.022-.363.011-.3.011-.318.033-.287V32.649l-.033-.275-.011-.319-.033-.451-.044-.429-.022-.22-.033-.363-.055-.286-.132-.572.044-.209.264-.055h1.122l.286.066.044.143-.033.154-.033.308-.011.231-.033.341-.022.209-.011.22V31.7l-.022.3-.022.253V32.5l-.011.33v.406l.022.352v.308l.011.331V34.6l.011.418v.429l.011.418v.22l.022.3.242.066h.176l.374-.011.176-.011.253-.022h.286l.22-.011.65-.077.23-.033.529-.132.154.088-.044.22-.11.264-.077.2L40,36.962h-.274Z"/>
          <path class="cls-14" d="M45.861,36.951l-2.608-.011-.616.044-.186-.143.021-.2.044-.242.022-.165.011-.22.044-.231v-.231l.023-.287.032-.318v-.573l.022-.352.033-.4v-.649l-.022-.473-.044-.451-.021-.209-.012-.2-.055-.418-.055-.275-.011-.264-.032-.209-.088-.418-.077-.374.077-.209.186-.044h2.783l.441-.022.209.011.341-.022.286.033.33-.044.253.1-.111.352-.285.22-.342-.077-.23-.033-.892-.088-.219-.011h-.429l-.451.044-.265.088-.021.286v.407l-.012.352-.044.308.022.242.2.077,1.034-.011h.362l.672-.033.3.055.055.1L46.477,32l-.11.374-.209.1-.264-.067-.2-.055-.188-.043-.6-.1-.2-.022-.33-.033-.418-.022-.11.077-.011.319v2.035l.011.221v.407l.033.286.011.22.012.385.021.319.1.066h.968l.428-.011.2-.011.2-.022.363-.066.4-.088.33-.1.187-.011.088.044.021.176-.087.33-.1.231-.066.055h-.759Z"/>
          <path class="cls-14" d="M50.414,36.9h-.605l-.341-.066-.044-.143.033-.121.121-.55.033-.22.033-.231.033-.495.067-.462.021-.407.011-.374.022-.4V32.2l-.033-.154.022-.231-.011-.187-.022-.2v-.407l-.033-.2-.044-.374-.055-.319-.033-.22-.044-.209.077-.242.275-.033.374.022h.209l.2-.011.242-.044.485-.033.3-.033.286-.044.23.044.253.033.21.033.2.066.188.088.186.1.342.242.132.154.209.385.077.22.1.407v.187l-.044.3-.077.363-.253.4-.155.177-.34.252-.165.11-.364.187-.637.132-.353.011-.088-.187.11-.087.22-.089.3-.264.144-.176.121-.2.142-.418.044-.209.033-.209-.01-.44-.055-.22-.089-.209-.121-.187-.308-.319-.186-.1-.33-.066-.2-.055-.188.011-.176.242-.054.451-.044.462-.034.451-.01.231v2.454l.01.209v.407l.011.407-.011.242.034.121.01.22.034.286.032.3.033.352-.044.275-.088.077h-.23Z"/>
          <path class="cls-14" d="M56.519,36.918l-.033-.308.033-.242.055-.451.011-.22.044-.43.011-.208v-.22l.011-.374.044-.3V33.54l.01-.352-.01-.352V32.2l-.034-.165-.021-.242-.011-.231-.044-.462-.033-.253-.077-.484-.055-.352-.089-.33v-.253l.209-.044.33-.022H57.2l.319-.022h.352l.22.033.044.055v.143l-.066.352-.044.242L58,30.405l-.022.4-.022.352-.011.264.187.066.264.055h1.155l.418.011.44-.011.232-.011.241-.022.209-.176v-.418l-.032-.429-.033-.341-.055-.352-.045-.242.056-.11.263-.055.243-.022.472-.022H62.2l.319.033.077.275-.044.264-.012.264-.021.209-.012.22-.01.209-.011.44-.011.462v.264l.011.3-.033.44v.407l.01.2.012.352.022.308v.65l.033.352.01.2v.2l.034.4.044.44.022.209.055.319-.111.154-.318.044h-.969l-.286-.1-.065-.11.033-.231.055-.242.077-1,.033-.462.011-.232v-.219l-.011-.44V33.7l.011-.429.01-.331V32.77l-.033-.33v-.275l-.23-.055-.286-.055h-.243l-.275-.044h-.682l-.407.011-.428.055-.232.011-.319.044-.077.22v.187l-.011.331-.011.285-.011.254.011.286.011.3v1.045l.011.363.033.187-.011.209.011.187.033.418.077.341-.066.176-.275.066h-.22l-.4-.033-.374.033Z"/>
          <path class="cls-14" d="M69.345,37.457l-.406-.066-.441-.077-.418-.121-.209-.077-.2-.077-.209-.088-.187-.1-.352-.231-.307-.242-.254-.286-.287-.3-.142-.176-.121-.2-.111-.2-.175-.385-.066-.176-.143-.407-.066-.485-.011-.253-.044-.264.044-.219v-.187l.066-.419.11-.462.165-.429.1-.2.209-.374.121-.165.242-.308.286-.286.308-.264.165-.121.165-.11.363-.2.187-.088.2-.088.2-.077.374-.121.187-.044.419-.066.241-.022.451.011.221.011.66.1.627.132.2.066.188.088.363.176.341.22.165.132.154.143.154.154.143.154.132.165.275.363.121.209.209.407.077.209.066.209.055.209.033.209.056.418.01.209-.022.43L74,33.662l-.022.22-.033.219-.121.418-.066.2-.077.2-.176.4-.11.187-.242.352-.143.165-.143.154-.154.154-.352.3-.187.143-.2.121-.209.11-.43.176-.209.077-.418.11-.418.077-.384.044-.374.011Zm1.387-.7.506-.143.308-.143.285-.209.188-.176.3-.341.11-.165L72.6,35.2l.142-.4.056-.2.033-.209.033-.319.011-.154-.022-.2-.011-.374-.033-.2-.077-.4-.066-.176-.121-.374-.077-.187-.088-.187-.1-.176-.231-.374-.143-.176-.154-.176-.154-.165-.341-.286-.177-.132-.175-.121-.187-.11-.407-.2-.221-.088-.22-.066-.219-.055-.232-.022h-.428l-.209.011-.418.088-.4.165-.176.1-.319.264-.165.165-.143.165-.131.187-.188.4-.066.2-.11.407-.066.44L66.6,32.5v.483l.011.231.033.243.077.4.165.385.231.4.11.176.188.352.175.187.2.253.175.176.374.308.2.121.2.11.209.11.418.143.395.11.441.077.242.011Z"/>
          <path class="cls-14" d="M82.468,37.215l-.462-.462-.154-.165-.4-.418-.242-.253-.473-.506-.165-.165-.462-.528-.154-.165-.463-.539-1.352-1.563L78,32.309l-.274-.3-.2-.209-.1-.11h-.066l-.011.286-.012.462-.011.43-.021.274.021.331-.021.451.011.341-.011.209.021.252.011.187v.4l.044.407.045.451.022.231.054.341-.065.143-.3.044h-.221l-.263-.044-.044-.209.044-.187.021-.242.022-.22.034-.374.033-.363v-.484l.032-.528.023-.463v-.736l-.011-.386v-.209l-.012-.2-.021-.21-.034-.407-.01-.2-.034-.4-.033-.352-.044-.418-.033-.253-.044-.418-.033-.363.022-.176.143-.22.188.066.561.561.571.605.133.154.285.33.165.154.3.308.132.154.363.374.231.275.484.55.176.2.44.474.143.165.44.495.143.175.165.155.286.307.154.187.1-.142.011-.4v-.9l.022-.385-.022-.319-.022-.286-.01-.253-.012-.231-.022-.231-.022-.132-.022-.253-.022-.22-.044-.5-.065-.473v-.253l.065-.066.309-.055.351-.033.144.011.054.242v.187l-.054.253v.44l-.033.594-.023.44-.033.231-.011.462v2.3l.011.352.033.3v.44l.023.231.021.242.044.451.033.209.033.3-.11.176Z"/>
          <path class="cls-14" d="M89.255,36.951l-2.607-.011-.616.044-.187-.143.022-.2.044-.242.022-.165.011-.22.044-.231v-.231l.022-.287.032-.318v-.573l.023-.352.033-.4v-.649l-.022-.473-.044-.451-.022-.209-.012-.2-.054-.418-.055-.275-.012-.264-.032-.209-.088-.418-.077-.374.077-.209.187-.044h2.783l.44-.022.209.011.341-.022.286.033.33-.044.253.1-.11.352-.285.22-.342-.077-.23-.033-.892-.088-.22-.011h-.429l-.451.044-.264.088-.022.286v.407l-.012.352-.043.308.022.242.2.077,1.034-.011H88.9l.672-.033.3.055.055.1L89.871,32l-.11.374-.209.1-.264-.067-.2-.055-.187-.043-.605-.1-.2-.022-.33-.033-.418-.022-.11.077-.011.319v2.035l.011.221v.407l.033.286.011.22.011.385.022.319.1.066h.968l.429-.011.2-.011.2-.022.364-.066.395-.088.33-.1.188-.011.088.044.021.176-.088.33-.1.231-.067.055h-.759Z"/>
        </g>
      </g>
      <g id="crown">
        <g>
          <rect class="cls-15" x="54.895" y="10.197" width="1.391" height="8.458" rx="0.377"/>
          <path class="cls-15" d="M61.632,17.572a2.325,2.325,0,0,1-.746,1.682,6.921,6.921,0,0,0-1.7,2.514c-.076.2-.151.4-.226.595a.333.333,0,0,1-.245.215h-6.2a.334.334,0,0,1-.246-.215q-.113-.3-.228-.6a6.91,6.91,0,0,0-1.694-2.5,2.333,2.333,0,0,1-.746-1.684,2.721,2.721,0,0,1,2.9-2.509,2.84,2.84,0,0,1,2.822,1.951h.595a2.841,2.841,0,0,1,2.822-1.951A2.727,2.727,0,0,1,61.632,17.572Z"/>
          <path class="cls-15" d="M62.727,15.955a4.279,4.279,0,0,1-.12.58.4.4,0,0,1,.24.37.406.406,0,0,1-.41.41.18.18,0,0,1-.1-.02,5.984,5.984,0,0,1-2.21,2.5l-.49-.77c1.89-1.22,2.58-3.32,2.01-4.45a2.756,2.756,0,0,0-1.83-1.24,4.825,4.825,0,0,0-3.92.87l-.54-.74a5.979,5.979,0,0,1,2.85-1.12.06.06,0,0,1-.01-.04.41.41,0,1,1,.82,0v.01a4.129,4.129,0,0,1,.78.08.411.411,0,0,1,.8.13.149.149,0,0,1-.02.09,3.2,3.2,0,0,1,.62.29.39.39,0,0,1,.34-.19.406.406,0,0,1,.41.41.384.384,0,0,1-.09.25,2.806,2.806,0,0,1,.4.45.309.309,0,0,1,.18-.05.406.406,0,0,1,.41.41.386.386,0,0,1-.23.36,2.681,2.681,0,0,1,.12.59h.01a.41.41,0,1,1,0,.82Z"/>
          <path class="cls-15" d="M48.451,15.955a4.279,4.279,0,0,0,.12.58.4.4,0,0,0-.24.37.406.406,0,0,0,.41.41.18.18,0,0,0,.1-.02,5.984,5.984,0,0,0,2.21,2.5l.49-.77c-1.89-1.22-2.58-3.32-2.01-4.45a2.756,2.756,0,0,1,1.83-1.24,4.825,4.825,0,0,1,3.92.87l.54-.74a5.979,5.979,0,0,0-2.85-1.12.06.06,0,0,0,.01-.04.41.41,0,0,0-.82,0v.01a4.129,4.129,0,0,0-.78.08.411.411,0,0,0-.8.13.149.149,0,0,0,.02.09,3.2,3.2,0,0,0-.62.29.39.39,0,0,0-.34-.19.406.406,0,0,0-.41.41.384.384,0,0,0,.09.25,2.806,2.806,0,0,0-.4.45.309.309,0,0,0-.18-.05.406.406,0,0,0-.41.41.386.386,0,0,0,.23.36,2.681,2.681,0,0,0-.12.59h-.01a.41.41,0,1,0,0,.82Z"/>
          <path class="cls-15" d="M57.512,12.235a3.7,3.7,0,0,0-1.737,1.172.251.251,0,0,1-.369,0,3.7,3.7,0,0,0-1.737-1.172c-.16-.051-.16-.2,0-.248a3.7,3.7,0,0,0,1.737-1.173.252.252,0,0,1,.369,0,3.7,3.7,0,0,0,1.737,1.173C57.671,12.038,57.671,12.184,57.512,12.235Z"/>
          <g>
            <g>
              <path class="cls-15" d="M55.973,9.525q-.382,0-.766,0c-.026,0-.062-.034-.081-.077l-.513-1.18c-.019-.043.016-.079.078-.08q.9-.014,1.8,0c.062,0,.1.037.078.08l-.512,1.18C56.036,9.491,56,9.526,55.973,9.525Z"/>
              <path class="cls-15" d="M55.973,9.856q-.382,0-.766,0c-.026,0-.062.034-.081.077l-.513,1.18c-.019.043.016.079.078.08q.9.014,1.8,0c.062,0,.1-.037.078-.08l-.512-1.18C56.036,9.89,56,9.855,55.973,9.856Z"/>
              <path class="cls-15" d="M55.425,9.307c0,.256,0,.511,0,.767,0,.025-.034.062-.077.081l-1.181.512c-.043.019-.079-.016-.079-.078q-.014-.9,0-1.8c0-.062.036-.1.079-.078l1.181.512C55.391,9.245,55.425,9.282,55.425,9.307Z"/>
              <path class="cls-15" d="M55.756,9.307c0,.256,0,.511,0,.767,0,.025.034.062.077.081l1.18.512c.043.019.079-.016.08-.078q.012-.9,0-1.8c0-.062-.037-.1-.08-.078l-1.18.512C55.79,9.245,55.755,9.282,55.756,9.307Z"/>
            </g>
            <circle class="cls-8" cx="55.59" cy="9.69" r="0.391"/>
          </g>
        </g>
      </g>
    </g>
  </g>
</svg>
