<svg xmlns="http://www.w3.org/2000/svg" xmlns:xlink="http://www.w3.org/1999/xlink" viewBox="0 0 295.26 299.046">
  <defs>
    <style>
      .cls-1 {
        isolation: isolate;
      }

      .cls-2 {
        fill: #75b7cc;
        opacity: 0.54;
      }

      .cls-3 {
        fill: #1a1a1a;
      }

      .cls-4 {
        fill: #b71818;
      }

      .cls-5 {
        fill: #891212;
      }

      .cls-20, .cls-5 {
        mix-blend-mode: luminosity;
      }

      .cls-6 {
        fill: #e5a89c;
      }

      .cls-17, .cls-18, .cls-7, .cls-9 {
        fill: none;
      }

      .cls-7 {
        stroke: #f2f2f2;
      }

      .cls-7, .cls-9 {
        stroke-linecap: round;
      }

      .cls-12, .cls-14, .cls-18, .cls-25, .cls-7, .cls-9 {
        stroke-miterlimit: 10;
      }

      .cls-8 {
        fill: #e2dcc3;
      }

      .cls-9 {
        stroke: #e2dcc3;
      }

      .cls-12, .cls-14, .cls-9 {
        stroke-width: 0.25px;
      }

      .cls-10, .cls-14 {
        fill: #f2f2f2;
      }

      .cls-11 {
        fill: #eab8ac;
      }

      .cls-12 {
        fill: #582b25;
        stroke: #9d6f64;
      }

      .cls-13 {
        fill: #4d4d4d;
      }

      .cls-14 {
        stroke: #4d4d4d;
      }

      .cls-15 {
        fill: #b28749;
      }

      .cls-16, .cls-25 {
        fill: #e2312a;
      }

      .cls-17 {
        stroke: #e2312a;
        stroke-linecap: square;
        stroke-linejoin: bevel;
        stroke-width: 4px;
      }

      .cls-18, .cls-25 {
        stroke: #aa2520;
      }

      .cls-19 {
        fill: url(#linear-gradient);
      }

      .cls-20 {
        fill: #dfe5e5;
        opacity: 0.62;
      }

      .cls-21 {
        fill: #343a3a;
        mix-blend-mode: overlay;
      }

      .cls-22 {
        fill: #aa2520;
      }

      .cls-23 {
        fill: #b3b3b3;
      }

      .cls-24 {
        fill: #666;
      }

      .cls-26 {
        fill: #545460;
      }

      .cls-27 {
        fill: #390c0a;
      }
    </style>
    <linearGradient id="linear-gradient" x1="170.349" y1="256.295" x2="80.481" y2="100.638" gradientUnits="userSpaceOnUse">
      <stop offset="0.001" stop-color="#acf3f7"/>
      <stop offset="0.541" stop-color="#a0daea"/>
      <stop offset="1" stop-color="#95c2dd"/>
    </linearGradient>
  </defs>
  <g class="cls-1">
    <g id="Layer_13" data-name="Layer 13">
      <path class="cls-2" d="M274.653,257.164c12.378-27.71,32.686-63.034,11.166-91.61-8.192-10.877-21.93-18.042-35.678-17.12-7.519.5-28.684,12.232-34.7,5.01-1.185-1.423-1.88-3.717-1.055-8.159,2.683-14.462,14.346-25.128,24.584-34.65,17.013-15.823,41.5-40.417,26.963-65.4C242.237,4.509,176.5-2.288,134.763.573,79.636,4.352,25.648,38.476,5.543,91.691c-7.223,19.116-7.891,41.865,1,60.569a70.123,70.123,0,0,0,18.71,23.766c6.3,5.17,19.8,9.071,20.664,18.594S30.393,210.885,24.741,216.4c-15.485,15.122-26.515,41.625-16.9,62.625,5.122,11.183,14.441,17.274,19.45,20.017H253.232A445.4,445.4,0,0,0,274.653,257.164Z"/>
    </g>
    <g id="Layer_29" data-name="Layer 29">
      <rect class="cls-3" x="165.975" y="216.316" width="21.44" height="77.729" rx="2.093" transform="translate(68.947 -35.901) rotate(14.387)"/>
      <rect class="cls-3" x="141.759" y="210.104" width="21.44" height="77.729" rx="2.093" transform="translate(66.644 -30.079) rotate(14.387)"/>
    </g>
    <g id="Layer_30" data-name="Layer 30">
      <path class="cls-4" d="M221.116,190.372a3.95,3.95,0,0,1-.12,1.19c-.99,3.02-11.4,9.26-13.53,10.89-.93.71-1.82,1.5-2.81,2.12-.02.01-.04.03-.06.04-.53.33-1.72.73-1.72,1.51l-3.14-10-.22-.71,2.47-9,9.28-33.76.65-2.38c.75.15,1.49.29,2.24.43.73.15,1.47.29,2.2.43.47,2.45.95,4.91,1.42,7.38a206.854,206.854,0,0,1,3.12,21.27C221.2,183.3,221.086,186.842,221.116,190.372Z"/>
      <path class="cls-5" d="M217.776,158.512c-2.06,5.32-4.06,11.01-5.92,17.06a261.786,261.786,0,0,0-7.2,29c-.02.01-.04.03-.06.04-.53.33-1.72.73-1.72,1.51l-3.14-10,2.25-9.71,7.56-32.6,1.72-1.16,2.89-1.95c.73.15,1.47.29,2.2.43C216.826,153.582,217.306,156.042,217.776,158.512Z"/>
      <path class="cls-5" d="M210.756,188.688l-8.307,11.4a.2.2,0,0,1-.355-.19l10.215-27.7a.2.2,0,0,1,.394.086l-1.082,14.062A4.571,4.571,0,0,1,210.756,188.688Z"/>
    </g>
    <g id="Layer_20" data-name="Layer 20">
      <rect class="cls-6" x="187.101" y="126.083" width="14.332" height="13.294" rx="0.631" transform="translate(39.072 -44.107) rotate(14.387)"/>
      <path class="cls-4" d="M197.616,221.724a152.6,152.6,0,0,1-49.123-12.6,2.994,2.994,0,0,1-1.631-4.033,70.966,70.966,0,0,0,3.278-6.415,3.375,3.375,0,0,1,3.842-2.071l44.849,11.5a3.374,3.374,0,0,1,2.371,3.665,70.623,70.623,0,0,0-.215,7.2A2.994,2.994,0,0,1,197.616,221.724Z"/>
      <path class="cls-4" d="M200.525,206.563l-47.283-12.129a1.725,1.725,0,0,1-1.243-2.1l13.761-53.647c.577-2.251,13.3-4.028,15.552-3.451l2.08.533,9.223,3.4,9.8,1.48,2,.515c2.25.577,12.548,8.26,11.971,10.51L202.625,205.32A1.725,1.725,0,0,1,200.525,206.563Z"/>
      <g id="Layer_21" data-name="Layer 21">
        <path class="cls-3" d="M182.761,135.608l4.683-5.12a13.379,13.379,0,0,0,3.458,2.7,13.214,13.214,0,0,0,2.081.9l-1.257,4.9a24.212,24.212,0,0,1-8.965-3.381Z"/>
        <path class="cls-7" d="M187.505,130.714a16.129,16.129,0,0,0,5.382,3.752"/>
        <g id="Layer_24" data-name="Layer 24">
          <path class="cls-8" d="M187.119,133.548a1.173,1.173,0,0,1,.075.528.63.63,0,0,1-.3.528c-.323.147-.8-.2-.944-.524-.083-.181-.165-.315.034-.453.132-.092.3,0,.439-.061.18-.082.283-.417.536-.288a.249.249,0,0,1,.108.136C187.087,133.459,187.1,133.5,187.119,133.548Z"/>
          <path class="cls-8" d="M185.964,134.653a1.176,1.176,0,0,1,.5-.194.627.627,0,0,1,.582.168c.218.281-.012.822-.292,1.04-.157.122-.269.233-.449.071-.12-.108-.068-.294-.16-.413-.121-.157-.471-.18-.4-.456a.253.253,0,0,1,.108-.136C185.884,134.705,185.924,134.678,185.964,134.653Z"/>
          <path class="cls-8" d="M187.529,133.763a1.174,1.174,0,0,0-.434.309.626.626,0,0,0-.179.579c.115.335.694.441,1.029.326.188-.065.342-.1.306-.336-.024-.16-.209-.219-.258-.361-.064-.187.109-.492-.159-.588a.254.254,0,0,0-.173.016C187.616,133.725,187.572,133.744,187.529,133.763Z"/>
          <path class="cls-9" d="M187.036,134.821a1.6,1.6,0,0,1,.412.77,1.547,1.547,0,0,1,.017.556"/>
        </g>
      </g>
      <g id="Layer_25" data-name="Layer 25">
        <path class="cls-3" d="M202.958,140.822l-1.641-6.742a13.326,13.326,0,0,1-4.33.7,13.18,13.18,0,0,1-2.259-.208l-1.257,4.9a24.242,24.242,0,0,0,9.487,1.351Z"/>
        <g id="Layer_23" data-name="Layer 23">
          <path class="cls-7" d="M201.155,134.249a16.117,16.117,0,0,1-6.523.7"/>
          <path class="cls-7" d="M194.627,134.965l-1.04,4.057"/>
          <line class="cls-7" x1="193.587" y1="139.022" x2="191.828" y2="138.594"/>
        </g>
        <g id="Layer_26" data-name="Layer 26">
          <path class="cls-8" d="M200.129,136.919a1.173,1.173,0,0,0-.319.427.627.627,0,0,0,.006.606c.212.284.8.208,1.08,0,.16-.119.3-.2.188-.413-.071-.145-.265-.144-.355-.264-.119-.159-.047-.5-.332-.511a.248.248,0,0,0-.159.067C200.2,136.857,200.164,136.888,200.129,136.919Z"/>
          <path class="cls-8" d="M200.61,138.444a1.186,1.186,0,0,0-.342-.409.63.63,0,0,0-.591-.133c-.326.141-.385.727-.244,1.052.079.183.123.333.359.278.157-.036.2-.225.339-.285.182-.079.5.07.573-.205a.251.251,0,0,0-.028-.171C200.654,138.528,200.633,138.485,200.61,138.444Z"/>
          <path class="cls-8" d="M199.666,136.91a1.18,1.18,0,0,1,.232.48.628.628,0,0,1-.122.594c-.262.238-.82.052-1.059-.21-.134-.147-.253-.25-.106-.442.1-.128.288-.091.4-.192.147-.133.142-.484.423-.438a.251.251,0,0,1,.144.1C199.608,136.836,199.638,136.873,199.666,136.91Z"/>
          <path class="cls-9" d="M199.589,138.075a1.606,1.606,0,0,0-.732.477,1.545,1.545,0,0,0-.282.479"/>
        </g>
      </g>
      <g id="Layer_22" data-name="Layer 22">
        <line class="cls-7" x1="192.887" y1="134.466" x2="175.91" y2="200.649"/>
      </g>
      <g id="Layer_28" data-name="Layer 28">
        <circle class="cls-8" cx="194.518" cy="145.11" r="1.77"/>
        <circle class="cls-8" cx="183.849" cy="186.705" r="1.77"/>
        <circle class="cls-8" cx="182.07" cy="193.638" r="1.77"/>
        <circle class="cls-8" cx="185.627" cy="179.773" r="1.77"/>
        <circle class="cls-8" cx="187.405" cy="172.84" r="1.77"/>
        <circle class="cls-8" cx="189.184" cy="165.908" r="1.77"/>
        <circle class="cls-8" cx="190.962" cy="158.975" r="1.77"/>
        <circle class="cls-8" cx="192.74" cy="152.043" r="1.77"/>
      </g>
    </g>
    <g id="belt">
      <rect class="cls-10" x="149.958" y="198.945" width="53.148" height="5.848" rx="0.499" transform="translate(55.695 -37.532) rotate(14.387)"/>
    </g>
    <g id="Layer_16" data-name="Layer 16">
      <ellipse class="cls-3" cx="201.75" cy="103.558" rx="15.52" ry="23.064" transform="translate(51.31 273.25) rotate(-75.613)"/>
      <path class="cls-11" d="M195.98,131.442l-2.595-.666c-8-2.052-11.287-16.427-9.235-24.426l4.936-25.862a12.165,12.165,0,0,1,.511-1.937c2.668-7.255,11.951-11.169,19.55-9.22l2.595.666c7.6,1.949,13.851,9.848,12.7,17.492a12.185,12.185,0,0,1-.484,1.943l-8.123,25.045C213.781,122.476,203.98,133.494,195.98,131.442Z"/>
      <path class="cls-12" d="M196.291,121.514a4.276,4.276,0,0,0,.447.623c.612.586,1.617.233,2.45.387.353.065.731.291.762.648a.724.724,0,0,1-.579.694,2.112,2.112,0,0,1-.972-.057l-2.572-.559a4.492,4.492,0,0,1-1.751-.649,1.685,1.685,0,0,1-.688-1.112c-.043-.427.218-.556.585-.664A2.1,2.1,0,0,1,196.291,121.514Z"/>
      <path class="cls-13" d="M202.157,108.209q-.045,1.39-.035,2.78c-.013.926-.012,1.851.011,2.776.034,1.861.182,3.672.334,5.561a1.893,1.893,0,0,1-.161.766.993.993,0,0,1-.663.546.969.969,0,0,1-.8-.266,3.1,3.1,0,0,1-.486-.561c-.279-.386-.49-.826-.713-1.208a1.8,1.8,0,0,0-.972-.81,5.658,5.658,0,0,1-1.247-.674,3.646,3.646,0,0,1-.535-.484.631.631,0,0,1-.14-.773,1.34,1.34,0,0,1,1.384-.354,2.048,2.048,0,0,1,1.094.859l-.02.014a2,2,0,0,0-1.093-.8,1.252,1.252,0,0,0-1.253.347.5.5,0,0,0,.134.608,3.467,3.467,0,0,0,.519.456,5.459,5.459,0,0,0,1.226.64,1.991,1.991,0,0,1,1.066.867c.24.4.445.814.721,1.186.261.347.6.792,1.072.724a1.017,1.017,0,0,0,.621-1.09c-.126-1.845-.248-3.7-.257-5.555s.04-3.71.172-5.56Z"/>
      <g id="Layer_31" data-name="Layer 31">
        <circle class="cls-14" cx="195.045" cy="107.178" r="1.905"/>
        <circle class="cls-14" cx="207.637" cy="110.408" r="1.905"/>
        <circle class="cls-3" cx="195.345" cy="107.548" r="0.72"/>
        <circle class="cls-3" cx="207.937" cy="110.778" r="0.72"/>
        <path class="cls-13" d="M191.5,107.307a3.377,3.377,0,0,1,.611-2.095,3.486,3.486,0,0,1,1.858-1.357,3.188,3.188,0,0,1,2.3.309,3.457,3.457,0,0,1,1.386,1.7l-.04.031a4.316,4.316,0,0,0-1.514-1.385,2.937,2.937,0,0,0-2-.176,3.756,3.756,0,0,0-2.551,2.979Z"/>
        <path class="cls-13" d="M210.51,112.179a3.757,3.757,0,0,0-.8-3.839,2.937,2.937,0,0,0-1.843-.81,4.324,4.324,0,0,0-1.994.484l-.02-.046a3.466,3.466,0,0,1,2.035-.826,3.193,3.193,0,0,1,2.168.838,3.487,3.487,0,0,1,.975,2.084,3.375,3.375,0,0,1-.472,2.131Z"/>
      </g>
      <path class="cls-3" d="M217.707,111.58A48.557,48.557,0,0,0,184.252,103a4.607,4.607,0,0,1-3.919-2.138,4.771,4.771,0,0,1-.7-3.9L189.8,57.323c2.911-11.351,15.347-18.059,27.634-14.907h0c12.287,3.152,19.958,15.018,17.047,26.369l-10.168,39.637a4.813,4.813,0,0,1-2.5,3.095A4.741,4.741,0,0,1,217.707,111.58Z"/>
      <path class="cls-15" d="M184.16,106.366a21.762,21.762,0,0,0,.32,6.272,15.021,15.021,0,0,0,2.34,5.483,17.144,17.144,0,0,0,21,5.384,14.984,14.984,0,0,0,4.688-3.677,21.743,21.743,0,0,0,3.3-5.341,16.206,16.206,0,0,1-2.106,6.2,14.66,14.66,0,0,1-4.726,4.852,17.117,17.117,0,0,1-13.365,1.921,18.862,18.862,0,0,1-6.232-2.954,16.059,16.059,0,0,1-4.555-5.166,14.642,14.642,0,0,1-1.806-6.526A16.236,16.236,0,0,1,184.16,106.366Z"/>
    </g>
    <g id="phone_box" data-name="phone box">
      <path id="base" class="cls-16" d="M71.662,291.083H178.927a1.957,1.957,0,0,1,1.957,1.957v6.006a0,0,0,0,1,0,0H69.705a0,0,0,0,1,0,0V293.04A1.957,1.957,0,0,1,71.662,291.083Z"/>
      <path id="arch" class="cls-16" d="M176.256,33.085a115.837,115.837,0,0,0-101.924,0V76.123a115.837,115.837,0,0,1,101.924,0Z"/>
      <path id="roof" class="cls-17" d="M74.332,33.085a114.326,114.326,0,0,1,101.924,0"/>
      <path id="body" class="cls-16" d="M74.937,63.857H175.651a2.066,2.066,0,0,1,2.066,2.066v225.16a0,0,0,0,1,0,0H72.871a0,0,0,0,1,0,0V65.923A2.066,2.066,0,0,1,74.937,63.857Z"/>
      <g id="door">
        <g id="glass">
          <rect class="cls-18" x="81.133" y="76.123" width="88.323" height="214.96"/>
          <rect class="cls-18" x="93.075" y="88.638" width="64.438" height="179.659"/>
          <path class="cls-19" d="M144.925,202.986v-.5h-39.02v20.46h41.23v-19.96Zm0,0v-.5h-39.02v20.46h41.23v-19.96Zm0,0v-.5h-39.02v20.46h41.23v-19.96Zm0,0v-.5h-39.02v20.46h41.23v-19.96Zm0,0v-.5h-39.02v20.46h41.23v-19.96Zm0-22.67v-.5h-39.02v20.46h41.23v-19.96Zm-41.22,21.67v20.96h43.43v-20.96Zm41.22-21.67v-.5h-39.02v20.46h41.23v-19.96Zm-41.22,21.67v20.96h43.43v-20.96Zm41.22-21.67v-.5h-39.02v20.46h41.23v-19.96Zm-41.22,21.67v20.96h43.43v-20.96Zm41.22-21.67v-.5h-39.02v20.46h41.23v-19.96Zm-41.22,21.67v20.96h43.43v-20.96Zm41.22-21.67v-.5h-39.02v20.46h41.23v-19.96Zm-41.22,21.67v20.96h43.43v-20.96Zm41.22-44.33v-.5h-39.02v20.46h41.23v-19.96Zm-41.22,21.66v20.96h43.43v-20.96Zm0,22.67v20.96h43.43v-20.96Zm41.22-44.33v-.5h-39.02v20.46h41.23v-19.96Zm-41.22,21.66v20.96h43.43v-20.96Zm0,22.67v20.96h43.43v-20.96Zm41.22-44.33v-.5h-39.02v20.46h41.23v-19.96Zm-41.22,21.66v20.96h43.43v-20.96Zm0,22.67v20.96h43.43v-20.96Zm41.22-44.33v-.5h-39.02v20.46h41.23v-19.96Zm-41.22,21.66v20.96h43.43v-20.96Zm0,22.67v20.96h43.43v-20.96Zm41.22-44.33v-.5h-39.02v20.46h41.23v-19.96Zm-41.22,21.66v20.96h43.43v-20.96Zm0,22.67v20.96h43.43v-20.96Zm41.22-67v-.5h-39.02v20.46h41.23v-19.96Zm-41.22,21.67v20.96h43.43v-20.96Zm0,22.66v20.96h43.43v-20.96Zm0,22.67v20.96h43.43v-20.96Zm41.22-67v-.5h-39.02v20.46h41.23v-19.96Zm-41.22,21.67v20.96h43.43v-20.96Zm0,22.66v20.96h43.43v-20.96Zm0,22.67v20.96h43.43v-20.96Zm41.22-67v-.5h-39.02v20.46h41.23v-19.96Zm-41.22,21.67v20.96h43.43v-20.96Zm0,22.66v20.96h43.43v-20.96Zm0,22.67v20.96h43.43v-20.96Zm41.22-67v-.5h-39.02v20.46h41.23v-19.96Zm-41.22,21.67v20.96h43.43v-20.96Zm0,22.66v20.96h43.43v-20.96Zm0,22.67v20.96h43.43v-20.96Zm41.22-67v-.5h-39.02v20.46h41.23v-19.96Zm-41.22,21.67v20.96h43.43v-20.96Zm0,22.66v20.96h43.43v-20.96Zm0,22.67v20.96h43.43v-20.96Zm41.22-89.67v-.5h-39.02v20.46h41.23v-19.96Zm-41.22,21.67v20.96h43.43v-20.96Zm0,22.67v20.96h43.43v-20.96Zm0,22.66v20.96h43.43v-20.96Zm0,22.67v20.96h43.43v-20.96Zm41.22-89.67v-.5h-39.02v20.46h41.23v-19.96Zm-41.22,21.67v20.96h43.43v-20.96Zm0,22.67v20.96h43.43v-20.96Zm0,22.66v20.96h43.43v-20.96Zm0,22.67v20.96h43.43v-20.96Zm41.22-89.67v-.5h-39.02v20.46h41.23v-19.96Zm-41.22,21.67v20.96h43.43v-20.96Zm0,22.67v20.96h43.43v-20.96Zm0,22.66v20.96h43.43v-20.96Zm0,22.67v20.96h43.43v-20.96Zm41.22-89.67v-.5h-39.02v20.46h41.23v-19.96Zm-41.22,21.67v20.96h43.43v-20.96Zm0,22.67v20.96h43.43v-20.96Zm0,22.66v20.96h43.43v-20.96Zm0,22.67v20.96h43.43v-20.96Zm41.22-89.67v-.5h-39.02v20.46h41.23v-19.96Zm-41.22,21.67v20.96h43.43v-20.96Zm0,22.67v20.96h43.43v-20.96Zm0,22.66v20.96h43.43v-20.96Zm0,22.67v20.96h43.43v-20.96Zm-7.72-110.3v173.56h58.86V91.686Zm.5,19.63v-1.7h57.86v1.7Zm57.86,113.34H96.485v-1.71h57.86Zm0-22.67H96.485v-1.71h57.86Zm0-22.67H96.485v-1.7h57.86Zm0-22.66H96.485v-1.71h57.86Zm0-22.67H96.485v-1.71h57.86Zm-50.64,68v20.96h43.43v-20.96Zm0-22.67v20.96h43.43v-20.96Zm0-22.66v20.96h43.43v-20.96Zm0-22.67v20.96h43.43v-20.96Zm41.22-21.67v-.5h-39.02v20.46h41.23v-19.96Zm-41.22,89.67v20.96h43.43v-20.96Zm0-22.67v20.96h43.43v-20.96Zm0-22.66v20.96h43.43v-20.96Zm0-22.67v20.96h43.43v-20.96Zm41.22-21.67v-.5h-39.02v20.46h41.23v-19.96Zm-41.22,89.67v20.96h43.43v-20.96Zm0-22.67v20.96h43.43v-20.96Zm0-22.66v20.96h43.43v-20.96Zm0-22.67v20.96h43.43v-20.96Zm41.22-21.67v-.5h-39.02v20.46h41.23v-19.96Zm-41.22,89.67v20.96h43.43v-20.96Zm0-22.67v20.96h43.43v-20.96Zm0-22.66v20.96h43.43v-20.96Zm0-22.67v20.96h43.43v-20.96Zm41.22-21.67v-.5h-39.02v20.46h41.23v-19.96Zm-41.22,21.67v20.96h43.43v-20.96Zm41.22-21.67v-.5h-39.02v20.46h41.23v-19.96Zm-41.22,89.67v20.96h43.43v-20.96Zm0-22.67v20.96h43.43v-20.96Zm0-22.66v20.96h43.43v-20.96Zm0,45.33v20.96h43.43v-20.96Zm0-22.67v20.96h43.43v-20.96Zm0-22.66v20.96h43.43v-20.96Zm41.22-21.67v-.5h-39.02v20.46h41.23v-19.96Zm-41.22,67v20.96h43.43v-20.96Zm0-22.67v20.96h43.43v-20.96Zm0-22.66v20.96h43.43v-20.96Zm41.22-21.67v-.5h-39.02v20.46h41.23v-19.96Zm-41.22,67v20.96h43.43v-20.96Zm0-22.67v20.96h43.43v-20.96Zm0-22.66v20.96h43.43v-20.96Zm41.22-21.67v-.5h-39.02v20.46h41.23v-19.96Zm-41.22,67v20.96h43.43v-20.96Zm0-22.67v20.96h43.43v-20.96Zm0-22.66v20.96h43.43v-20.96Zm41.22-21.67v-.5h-39.02v20.46h41.23v-19.96Zm-41.22,21.67v20.96h43.43v-20.96Zm41.22-21.67v-.5h-39.02v20.46h41.23v-19.96Zm-41.22,67v20.96h43.43v-20.96Zm0-22.67v20.96h43.43v-20.96Zm0,22.67v20.96h43.43v-20.96Zm0-22.67v20.96h43.43v-20.96Zm41.22-21.66v-.5h-39.02v20.46h41.23v-19.96Zm-41.22,44.33v20.96h43.43v-20.96Zm0-22.67v20.96h43.43v-20.96Zm41.22-21.66v-.5h-39.02v20.46h41.23v-19.96Zm-41.22,44.33v20.96h43.43v-20.96Zm0-22.67v20.96h43.43v-20.96Zm41.22-21.66v-.5h-39.02v20.46h41.23v-19.96Zm-41.22,44.33v20.96h43.43v-20.96Zm0-22.67v20.96h43.43v-20.96Zm41.22-21.66v-.5h-39.02v20.46h41.23v-19.96Zm-41.22,21.66v20.96h43.43v-20.96Zm41.22-21.66v-.5h-39.02v20.46h41.23v-19.96Zm-41.22,44.33v20.96h43.43v-20.96Zm0,0v20.96h43.43v-20.96Zm41.22-21.67v-.5h-39.02v20.46h41.23v-19.96Zm-41.22,21.67v20.96h43.43v-20.96Zm41.22-21.67v-.5h-39.02v20.46h41.23v-19.96Zm-41.22,21.67v20.96h43.43v-20.96Zm41.22-21.67v-.5h-39.02v20.46h41.23v-19.96Zm-41.22,21.67v20.96h43.43v-20.96Zm41.22-21.67v-.5h-39.02v20.46h41.23v-19.96Zm-41.22,21.67v20.96h43.43v-20.96Zm41.22-21.67v-.5h-39.02v20.46h41.23v-19.96Zm0,22.67v-.5h-39.02v20.46h41.23v-19.96Zm0,0v-.5h-39.02v20.46h41.23v-19.96Zm0,0v-.5h-39.02v20.46h41.23v-19.96Zm0,0v-.5h-39.02v20.46h41.23v-19.96Zm0,0v-.5h-39.02v20.46h41.23v-19.96Z"/>
          <polygon class="cls-20" points="95.985 245.116 116.282 245.116 153.935 91.556 133.638 91.556 95.985 245.116"/>
          <rect class="cls-21" x="95.825" y="91.675" width="2.966" height="173.571"/>
          <path class="cls-22" d="M95.485,91.186v174.56h59.86V91.186Zm58.86,173.56H96.485V92.186h57.86Z"/>
        </g>
        <g id="Layer_12" data-name="Layer 12">
          <g>
            <path class="cls-16" d="M95.985,109.116v2.7h58.86v-2.7Zm58.36,2.2H96.485v-1.7h57.86Z"/>
            <path class="cls-22" d="M105.405,111.316v.5h39.52v-.5Zm0,0v.5h39.52v-.5Zm0,0v.5h39.52v-.5Zm0,0v.5h39.52v-.5Zm-9.92-2.7v3.7h59.86v-3.7Zm1,1h57.86v1.7H96.485Zm8.92,1.7v.5h39.52v-.5Zm0,0v.5h39.52v-.5Zm0,0v.5h39.52v-.5Zm0,0v.5h39.52v-.5Zm0,0v.5h39.52v-.5Z"/>
            <rect class="cls-16" x="96.485" y="109.616" width="57.86" height="1.7"/>
          </g>
          <g>
            <path class="cls-16" d="M95.985,245.116v2.7h58.86v-2.7Zm58.36,2.2H96.485v-1.7h57.86Z"/>
            <path class="cls-22" d="M95.485,244.616v3.7h59.86v-3.7Zm58.86,2.7H96.485v-1.7h57.86Z"/>
            <rect class="cls-16" x="96.485" y="245.616" width="57.86" height="1.7"/>
          </g>
          <g>
            <path class="cls-16" d="M95.985,222.446v2.71h58.86v-2.71Zm58.36,2.21H96.485v-1.71h57.86Z"/>
            <path class="cls-22" d="M95.485,221.946v3.71h59.86v-3.71Zm1,1h57.86v1.71H96.485Z"/>
            <rect class="cls-16" x="96.485" y="222.946" width="57.86" height="1.71"/>
          </g>
          <g>
            <path class="cls-16" d="M95.985,199.776v2.71h58.86v-2.71Zm58.36,2.21H96.485v-1.71h57.86Z"/>
            <path class="cls-22" d="M105.405,201.986v.5h39.52v-.5Zm0,0v.5h39.52v-.5Zm0,0v.5h39.52v-.5Zm0,0v.5h39.52v-.5Zm-9.92-2.71v3.71h59.86v-3.71Zm1,1h57.86v1.71H96.485Zm8.92,1.71v.5h39.52v-.5Zm0,0v.5h39.52v-.5Zm0,0v.5h39.52v-.5Zm0,0v.5h39.52v-.5Zm0,0v.5h39.52v-.5Z"/>
            <rect class="cls-16" x="96.485" y="200.276" width="57.86" height="1.71"/>
          </g>
          <g>
            <path class="cls-16" d="M95.985,177.116v2.7h58.86v-2.7Zm58.36,2.2H96.485v-1.7h57.86Z"/>
            <path class="cls-22" d="M105.405,179.316v.5h39.52v-.5Zm0,0v.5h39.52v-.5Zm0,0v.5h39.52v-.5Zm0,0v.5h39.52v-.5Zm-9.92-2.7v3.7h59.86v-3.7Zm1,1h57.86v1.7H96.485Zm8.92,1.7v.5h39.52v-.5Zm0,0v.5h39.52v-.5Zm0,0v.5h39.52v-.5Zm0,0v.5h39.52v-.5Zm0,0v.5h39.52v-.5Z"/>
            <rect class="cls-16" x="96.485" y="177.616" width="57.86" height="1.7"/>
          </g>
          <g>
            <path class="cls-16" d="M95.985,154.446v2.71h58.86v-2.71Zm58.36,2.21H96.485v-1.71h57.86Z"/>
            <path class="cls-22" d="M105.405,156.656v.5h39.52v-.5Zm0,0v.5h39.52v-.5Zm0,0v.5h39.52v-.5Zm0,0v.5h39.52v-.5Zm-9.92-2.71v3.71h59.86v-3.71Zm1,1h57.86v1.71H96.485Zm8.92,1.71v.5h39.52v-.5Zm0,0v.5h39.52v-.5Zm0,0v.5h39.52v-.5Zm0,0v.5h39.52v-.5Zm0,0v.5h39.52v-.5Z"/>
            <rect class="cls-16" x="96.485" y="154.946" width="57.86" height="1.71"/>
          </g>
          <g>
            <path class="cls-16" d="M95.985,131.776v2.71h58.86v-2.71Zm58.36,2.21H96.485v-1.71h57.86Z"/>
            <path class="cls-22" d="M105.405,133.986v.5h39.52v-.5Zm0,0v.5h39.52v-.5Zm0,0v.5h39.52v-.5Zm0,0v.5h39.52v-.5Zm-9.92-2.71v3.71h59.86v-3.71Zm1,1h57.86v1.71H96.485Zm8.92,1.71v.5h39.52v-.5Zm0,0v.5h39.52v-.5Zm0,0v.5h39.52v-.5Zm0,0v.5h39.52v-.5Zm0,0v.5h39.52v-.5Z"/>
            <rect class="cls-16" x="96.485" y="132.276" width="57.86" height="1.71"/>
          </g>
          <g>
            <rect class="cls-16" x="103.205" y="247.316" width="2.7" height="17.93"/>
            <rect class="cls-16" x="103.205" y="224.656" width="2.7" height="20.96"/>
            <rect class="cls-16" x="103.205" y="201.986" width="2.7" height="20.96"/>
            <rect class="cls-16" x="103.205" y="179.316" width="2.7" height="20.96"/>
            <rect class="cls-16" x="103.205" y="156.656" width="2.7" height="20.96"/>
            <rect class="cls-16" x="103.205" y="133.986" width="2.7" height="20.96"/>
            <rect class="cls-16" x="103.205" y="111.316" width="2.7" height="20.96"/>
            <rect class="cls-16" x="103.205" y="91.686" width="2.7" height="17.93"/>
            <path class="cls-22" d="M105.405,247.316v17.43h-1.7v-17.43h-1v18.43h3.7v-18.43Zm0-44.83v20.46h.5v-20.46Zm0-68.5v20.96h1v-20.96Zm0,.5v20.46h.5v-20.46Zm-2.7-.5v20.96h1v-20.96Zm2.7,0v20.96h.5v-20.46h.5v-.5Zm0,.5v20.46h.5v-20.46Zm0-22.67v20.46h.5v-20.46Zm0,0v20.46h.5v-20.46Zm0,0v20.46h.5v-20.46Zm0-.5v20.96h.5v-20.46h.5v-.5Zm-2.7,0v20.96h1v-20.96Zm2.7.5v20.46h.5v-20.46Zm0,0v20.46h.5v-20.46Zm0,0v20.46h.5v-20.46Zm0-.5v20.96h1v-20.96Zm-2.7-20.13v18.43h1V92.186h1.7v17.43h1V91.186Zm2.7,43.3v20.46h.5v-20.46Zm0,22.17v20.96h1v-20.96Zm0,.5v20.46h.5v-20.46Zm0,0v20.46h.5v-20.46Zm0,0v20.46h.5v-20.46Zm-2.7-.5v20.96h1v-20.96Zm2.7,0v20.96h.5v-20.46h.5v-.5Zm0,.5v20.46h.5v-20.46Zm0,0v20.46h.5v-20.46Zm0,0v20.46h.5v-20.46Zm0,22.16v20.96h1v-20.96Zm0,.5v20.46h.5v-20.46Zm0-.5v20.96h.5v-20.46h.5v-.5Zm-2.7,0v20.96h1v-20.96Zm2.7.5v20.46h.5v-20.46Zm0,0v20.46h.5v-20.46Zm0,22.67v20.46h.5v-20.46Zm0-.5v20.96h.5v-20.46h.5v-.5Zm-2.7,0v20.96h1v-20.96Zm2.7.5v20.46h.5v-20.46Zm0-.5v20.96h1v-20.96Zm-2.7,22.67v20.96h1v-20.96Zm2.7,0v20.96h1v-20.96Z"/>
          </g>
          <g>
            <rect class="cls-16" x="144.925" y="247.316" width="2.71" height="17.93"/>
            <rect class="cls-16" x="144.925" y="224.656" width="2.71" height="20.96"/>
            <rect class="cls-16" x="144.925" y="201.986" width="2.71" height="20.96"/>
            <rect class="cls-16" x="144.925" y="179.316" width="2.71" height="20.96"/>
            <rect class="cls-16" x="144.925" y="156.656" width="2.71" height="20.96"/>
            <rect class="cls-16" x="144.925" y="133.986" width="2.71" height="20.96"/>
            <rect class="cls-16" x="144.925" y="111.316" width="2.71" height="20.96"/>
            <rect class="cls-16" x="144.925" y="91.686" width="2.71" height="17.93"/>
            <path class="cls-22" d="M147.135,247.316v17.43h-1.71v-17.43h-1v18.43h3.71v-18.43Zm-2.21-45.33v1h.5v-1Zm0,0v1h.5v-1Zm0,0v1h.5v-1Zm2.21,0v20.96h1v-20.96Zm-2.21,0v1h.5v-1Zm0,0v1h.5v-1Zm0,0v1h.5v-1Zm0,0v1h.5v-1Zm-.5,0v20.96h1v-20.96Zm.5-45.33v1h.5v-1Zm0,0v1h.5v-1Zm2.21,0v20.96h1v-20.96Zm-2.21,0v1h.5v-1Zm0,0v1h.5v-1Zm-.5,0v20.96h1v-20.96Zm.5-22.67v1h.5v-1Zm0,0v1h.5v-1Zm0,0v1h.5v-1Zm2.21,0v20.96h1v-20.96Zm-2.21,0v1h.5v-1Zm0,0v1h.5v-1Zm0,0v1h.5v-1Zm0,0v1h.5v-1Zm-.5,0v20.96h1v-20.96Zm0-42.8v18.43h1V92.186h1.71v17.43h1V91.186Zm0,20.13v20.96h1v-20.96Zm.5,0v1h.5v-1Zm0,0v1h.5v-1Zm2.21,0v20.96h1v-20.96Zm-2.21,1h.5v-1h-.5Zm0-1v1h.5v-1Zm-.5,68v20.96h1v-20.96Zm.5,0v1h.5v-1Zm0,0v1h.5v-1Zm0,0v1h.5v-1Zm0,0v1h.5v-1Zm2.21,0v20.96h1v-20.96Zm-2.21,0v1h.5v-1Zm0,0v1h.5v-1Zm0,0v1h.5v-1Zm-.5,45.34v20.96h1v-20.96Zm2.71,0v20.96h1v-20.96Z"/>
          </g>
          <g id="Layer_15" data-name="Layer 15">
            <rect class="cls-16" x="95.334" y="109.482" width="1.7" height="1.969" transform="translate(-14.282 206.651) rotate(-90)"/>
            <rect class="cls-16" x="95.334" y="132.147" width="1.7" height="1.969" transform="translate(-36.947 229.316) rotate(-90)"/>
            <rect class="cls-16" x="95.334" y="154.817" width="1.7" height="1.969" transform="translate(-59.617 251.986) rotate(-90)"/>
            <rect class="cls-16" x="95.334" y="177.483" width="1.7" height="1.969" transform="translate(-82.283 274.652) rotate(-90)"/>
            <rect class="cls-16" x="95.334" y="200.147" width="1.7" height="1.969" transform="translate(-104.947 297.316) rotate(-90)"/>
            <rect class="cls-16" x="95.334" y="222.817" width="1.7" height="1.969" transform="translate(-127.617 319.986) rotate(-90)"/>
            <rect class="cls-16" x="95.334" y="245.482" width="1.7" height="1.969" transform="translate(-150.282 342.651) rotate(-90)"/>
            <rect class="cls-16" x="154.069" y="245.482" width="1.7" height="1.969" transform="translate(-91.547 401.386) rotate(-90)"/>
            <rect class="cls-16" x="154.069" y="222.817" width="1.7" height="1.969" transform="translate(-68.882 378.721) rotate(-90)"/>
            <rect class="cls-16" x="154.069" y="200.147" width="1.7" height="1.969" transform="translate(-46.212 356.051) rotate(-90)"/>
            <rect class="cls-16" x="154.069" y="177.482" width="1.7" height="1.969" transform="translate(-23.547 333.386) rotate(-90)"/>
            <rect class="cls-16" x="154.069" y="154.817" width="1.7" height="1.969" transform="translate(-0.882 310.721) rotate(-90)"/>
            <rect class="cls-16" x="154.069" y="132.147" width="1.7" height="1.969" transform="translate(21.788 288.051) rotate(-90)"/>
            <rect class="cls-16" x="154.069" y="109.482" width="1.7" height="1.969" transform="translate(44.453 265.386) rotate(-90)"/>
            <rect class="cls-16" x="103.705" y="90.691" width="1.7" height="1.969"/>
            <rect class="cls-16" x="145.43" y="90.571" width="1.7" height="1.969"/>
            <rect class="cls-16" x="145.43" y="264.262" width="1.7" height="1.969"/>
            <rect class="cls-16" x="103.705" y="264.262" width="1.7" height="1.969"/>
          </g>
        </g>
        <g id="Layer_9" data-name="Layer 9">
          <g>
            <ellipse class="cls-23" cx="163.676" cy="167.134" rx="3.617" ry="5.775"/>
            <path class="cls-22" d="M163.676,161.859c1.722,0,3.118,2.362,3.118,5.275s-1.4,5.276-3.118,5.276-3.117-2.362-3.117-5.276,1.4-5.275,3.117-5.275m0-1c-2.308,0-4.117,2.756-4.117,6.275s1.809,6.276,4.117,6.276,4.118-2.757,4.118-6.276-1.809-6.275-4.118-6.275Z"/>
          </g>
          <path class="cls-24" d="M163.676,161.859c1.722,0,3.118,2.362,3.118,5.275s-1.4,5.276-3.118,5.276"/>
        </g>
        <g id="Layer_14" data-name="Layer 14">
          <rect class="cls-25" x="147.63" y="157.154" width="7.213" height="19.96"/>
          <g>
            <path class="cls-10" d="M152.574,160.845a.846.846,0,0,1-.143.5,1.1,1.1,0,0,1-.4.341,1.519,1.519,0,0,1-.449.144,2.78,2.78,0,0,1-.467.049l0,.606h-1.073c0-.172,0-.356,0-.553s0-.479,0-.849c0-.155,0-.341,0-.56s0-.436,0-.653l.267,0c.106,0,.214,0,.321,0,.351,0,.612.01.781.028a2.164,2.164,0,0,1,.479.109,1.117,1.117,0,0,1,.5.328A.777.777,0,0,1,152.574,160.845Zm-1.094.094a.358.358,0,0,0-.034-.155.28.28,0,0,0-.1-.118.319.319,0,0,0-.121-.049.812.812,0,0,0-.121-.01h-.041v.7h.043a.528.528,0,0,0,.117-.016.328.328,0,0,0,.108-.042.38.38,0,0,0,.114-.116A.4.4,0,0,0,151.48,160.939Z"/>
            <path class="cls-10" d="M152.635,163.873c0,.236,0,.409,0,.519s0,.221,0,.333c0,.149,0,.279,0,.389s0,.2,0,.281a1.136,1.136,0,0,1-.12.546.979.979,0,0,1-.306.35,1.47,1.47,0,0,1-.449.215,1.946,1.946,0,0,1-.518.06,1.786,1.786,0,0,1-.593-.08,1.533,1.533,0,0,1-.4-.209.976.976,0,0,1-.3-.362,1.227,1.227,0,0,1-.106-.539c0-.077,0-.17,0-.282s0-.24,0-.388,0-.257,0-.345,0-.251,0-.488h1.072c0,.214,0,.387,0,.521v.622c0,.1,0,.2,0,.306a.417.417,0,0,0,.09.289.307.307,0,0,0,.236.1.3.3,0,0,0,.235-.1.418.418,0,0,0,.088-.287c0-.106,0-.214,0-.325s0-.207,0-.291,0-.182,0-.308,0-.3,0-.525Z"/>
            <path class="cls-10" d="M152.432,170.488h-2.2q0-.317,0-.741c0-.283,0-.5,0-.648,0-.3,0-.568,0-.788s0-.365,0-.438h1.072c0,.144,0,.3,0,.457s0,.342,0,.545c0,.127,0,.267,0,.422s0,.26,0,.312h1.127Z"/>
            <path class="cls-10" d="M152.432,174.487h-2.2q0-.316,0-.741c0-.283,0-.5,0-.648,0-.305,0-.568,0-.788s0-.365,0-.438h1.072c0,.144,0,.3,0,.457s0,.342,0,.545c0,.126,0,.267,0,.423s0,.259,0,.311h1.127Z"/>
          </g>
        </g>
      </g>
      <g id="hinges">
        <rect class="cls-26" x="79.903" y="91.69" width="2.458" height="18.885" rx="0.777"/>
        <rect class="cls-26" x="79.903" y="174.19" width="2.458" height="18.885" rx="0.777"/>
        <rect class="cls-26" x="79.903" y="256.69" width="2.458" height="18.885" rx="0.777"/>
      </g>
      <g id="label">
        <g>
          <path class="cls-10" d="M87.9,45.656h74.8a1.16,1.16,0,0,1,1.16,1.16V57.5a1.159,1.159,0,0,1-1.159,1.159H87.9A1.159,1.159,0,0,1,86.736,57.5V46.816A1.159,1.159,0,0,1,87.9,45.656Z"/>
          <path class="cls-22" d="M162.693,46.157a.661.661,0,0,1,.659.659V57.5a.661.661,0,0,1-.659.659H87.9a.661.661,0,0,1-.66-.659V46.816a.661.661,0,0,1,.66-.659h74.8m0-1H87.9a1.661,1.661,0,0,0-1.66,1.659V57.5a1.661,1.661,0,0,0,1.66,1.659h74.8a1.661,1.661,0,0,0,1.659-1.659V46.816a1.661,1.661,0,0,0-1.659-1.659Z"/>
        </g>
        <g>
          <path class="cls-27" d="M92.455,56.03l-.188-.055-.066-.2.077-.77.011-.242v-.231l.011-.242.033-.693v-.231l.011-.231v-.451l-.022-.319.033-.253-.044-.308-.011-.32v-.352l-.033-.219.011-.177-.032-.209v-.143l-.034-.253-.011-.187-.044-.429-.033-.231-.11-.253-.319-.011-.3.033-.264.022-.2.022-.2.044-.319.088-.209.033-.132-.077-.022-.11.143-.209.231-.341.319-.088.308.011h.209l.231.033.231-.033.308.011L93,48.439l.9.022.33.022.165-.033h.285l.936-.011H95.9l.077.077-.066.275L95.8,49l-.2.165-.286-.022-.4-.066-.33-.033-.407-.022h-.3l-.066.231-.067.462-.044.474-.032.483-.022.243-.012.241-.011.364-.01.264-.022.263v.991l.01.286.045.33-.023.275.055.2.022.4.044.374.044.407.045.4-.045.275-.319.044-.626-.011-.209.044Z"/>
          <path class="cls-27" d="M101.507,56.052,98.9,56.041l-.616.044-.187-.143.022-.2.044-.242.022-.165.011-.22.044-.231v-.231l.022-.286.033-.319v-.572l.022-.352.033-.4v-.649l-.022-.473-.044-.452-.022-.209-.011-.2-.055-.419-.055-.275-.011-.264-.033-.209-.088-.418-.077-.374.077-.209.187-.044h2.783l.44-.022.209.011.342-.022.286.033.33-.044.253.1-.111.352-.285.22-.342-.077-.23-.033-.892-.088-.22-.011h-.429L99.879,49l-.264.088-.022.286v.407l-.011.352-.044.309.022.242.2.076,1.034-.01h.363l.672-.034.3.056.056.1-.056.231-.109.374-.209.1-.265-.067-.2-.054-.187-.044-.605-.1-.2-.022-.33-.033-.418-.022-.11.077-.011.319v2.035l.011.22v.407l.033.286.011.22.011.385.022.319.1.066h.968l.429-.011.2-.011.2-.022.364-.066.4-.088.33-.1.187-.011.088.044.022.176-.088.33-.1.231-.066.055h-.76Z"/>
          <path class="cls-27" d="M109.2,56.052h-.43l-.2-.022-.187-.011h-3.036l-.11-.033-.033-.11.044-.286.033-.22.055-.462.033-.253.022-.363.011-.3.011-.319.033-.286V51.751l-.033-.275-.011-.32-.033-.45-.044-.429-.022-.221-.033-.363-.055-.286-.132-.572.044-.209.264-.055h1.122l.286.066.044.143-.033.154-.033.308-.011.231-.033.342-.022.209-.011.219V50.8l-.022.3-.022.253V51.6l-.011.33v.407l.022.352v.308l.011.33V53.7l.011.418v.429l.011.418v.22l.022.3.242.066h.176l.374-.011.176-.011.253-.022h.286l.22-.011.65-.077.231-.033.527-.132.155.088-.044.22-.111.264-.076.2-.077.044h-.275Z"/>
          <path class="cls-27" d="M115.565,56.052l-2.607-.011-.616.044-.187-.143.022-.2.044-.242.022-.165.011-.22.044-.231v-.231l.022-.286.033-.319v-.572l.022-.352.033-.4v-.649l-.022-.473-.044-.452-.022-.209-.011-.2-.055-.419-.055-.275-.011-.264-.033-.209-.088-.418-.077-.374.077-.209.187-.044h2.784l.439-.022.209.011.342-.022.286.033.33-.044.253.1-.11.352-.286.22-.341-.077-.231-.033-.891-.088-.221-.011h-.428l-.452.044-.264.088-.022.286v.407l-.011.352-.044.309.022.242.2.076,1.035-.01h.362l.672-.034.3.056.055.1-.055.231-.11.374-.209.1-.264-.067-.2-.054-.188-.044-.6-.1-.2-.022-.331-.033-.417-.022-.111.077-.011.319v2.035l.011.22v.407l.033.286.011.22.011.385.022.319.1.066h.969l.428-.011.2-.011.2-.022.364-.066.4-.088.33-.1.187-.011.088.044.022.176-.088.33-.1.231-.066.055h-.76Z"/>
          <path class="cls-27" d="M120.119,56h-.605l-.341-.066-.044-.143.033-.121.121-.55.033-.22.033-.231.033-.495.066-.462.022-.407.011-.374.022-.4V51.3l-.033-.153.022-.231-.011-.187-.022-.2v-.407l-.033-.2-.044-.374-.055-.319-.033-.22-.044-.209.077-.242.275-.033.374.022h.209l.2-.011.242-.044.484-.033.3-.033.286-.044.231.044.253.033.21.033.2.066.187.088.187.1.342.242.132.154.209.385.077.22.1.407v.187l-.044.3L123.7,51l-.253.4-.154.176-.341.253-.165.11-.364.187-.638.131-.352.012-.088-.187.11-.088.22-.089.3-.263.143-.177.121-.2.143-.419.044-.209.034-.209-.012-.44-.054-.22-.089-.209-.121-.187-.307-.319-.187-.1-.331-.066-.2-.055-.187.011-.176.242-.055.451-.044.463-.033.45-.011.232v2.453l.011.209v.407l.011.407-.011.242.033.121.011.22.033.286.033.3.033.352-.044.275-.088.077h-.231Z"/>
          <path class="cls-27" d="M126.224,56.019l-.033-.308.033-.242.055-.451.011-.22.044-.429.011-.209v-.22l.011-.374.044-.3v-.627l.011-.352-.011-.352V51.3l-.033-.165-.022-.241-.011-.232-.044-.462-.033-.253-.077-.483-.055-.353-.088-.33v-.253l.209-.044.33-.022h.33l.319-.022h.353l.219.033.044.055v.143l-.066.352-.044.242-.022.242-.022.4-.022.353-.011.264.187.066.264.054h1.155l.418.012.441-.012.231-.01.241-.022.209-.177v-.418l-.032-.429-.033-.341-.055-.352-.045-.242.056-.11.264-.055.242-.022.472-.022h.232l.319.033.077.275-.044.264-.011.265-.022.209-.012.219-.01.209-.011.441-.011.462v.264l.011.3-.033.44v.407l.01.2.012.352.022.308v.649l.033.352.011.2v.2l.033.4.044.44.022.209.055.319-.11.154-.319.044H131l-.286-.1-.065-.11.033-.231.055-.242.077-1,.033-.462.011-.231v-.22l-.011-.44V52.8l.011-.429.011-.33v-.165l-.034-.33v-.275l-.23-.055-.286-.056h-.242l-.276-.044h-.681l-.408.012-.428.054-.232.012-.319.044-.077.22v.187l-.011.33-.011.285-.01.254.01.286.011.3v1.045l.011.363.033.187-.011.209.011.187.033.418.077.341-.066.176-.275.066h-.22l-.4-.033-.374.033Z"/>
          <path class="cls-27" d="M139.05,56.558l-.406-.066-.44-.077-.418-.121-.209-.077-.2-.077-.209-.088-.187-.1-.352-.231-.307-.242-.254-.286-.286-.3-.143-.176-.121-.2-.11-.2-.176-.385-.066-.176-.143-.407-.066-.484-.011-.253-.044-.264.044-.22v-.187l.066-.419.11-.462.165-.429.1-.2.209-.374.121-.166.242-.308.287-.286.307-.264.165-.121.165-.11.364-.2.186-.088.2-.088.2-.077.374-.121.186-.044.419-.066.241-.022.451.011.221.011.66.1.627.132.2.066.188.088.363.176.341.22.165.132.154.143.154.154.143.154.132.165.276.364.121.209.209.406.076.209.066.21.055.209.033.209.056.418.01.209-.022.429-.021.231-.023.22-.033.22-.121.418-.066.2-.077.2-.176.4-.11.187-.242.352-.143.165-.143.154-.154.154-.352.3-.187.143-.2.121-.209.11-.43.176-.209.077-.418.11-.417.077-.385.044-.374.011Zm1.387-.7.506-.143.308-.143.286-.209.187-.176.3-.341.11-.165.176-.374.143-.4.055-.2.033-.209.033-.319.011-.154-.022-.2-.011-.374-.033-.2-.077-.4-.066-.175-.121-.374-.077-.187-.088-.187-.1-.177-.231-.374-.143-.175-.154-.177-.154-.165-.341-.286-.177-.132-.175-.121-.187-.11-.407-.2-.221-.088-.219-.066-.22-.055-.232-.022H138.7l-.209.011-.418.088-.4.165-.176.1-.319.264-.165.165-.143.165-.131.187-.188.4-.066.2-.11.408-.066.44-.011.22v.484l.011.231.033.242.077.4.165.385.231.4.11.176.188.352.175.187.2.253.175.176.374.308.2.121.2.11.209.11.418.143.395.11.441.077.242.011Z"/>
          <path class="cls-27" d="M152.173,56.317l-.462-.463-.154-.165-.395-.418-.243-.253-.473-.506-.165-.165-.462-.528-.154-.165-.462-.539-1.353-1.563-.144-.142-.274-.3-.2-.209-.1-.109h-.066l-.011.286-.012.462-.01.429-.022.275.022.33-.022.451.011.341-.011.209.022.253.01.187v.4l.044.407.045.451.022.231.054.341-.065.143-.3.044h-.221l-.263-.044-.044-.209.044-.187.021-.242.023-.22.033-.374.033-.363v-.484l.032-.528.023-.462V52.18l-.011-.385v-.209l-.012-.2-.021-.21-.033-.406-.011-.2-.033-.4-.034-.352-.044-.418-.033-.253-.044-.418-.033-.363.023-.176.142-.22.188.066.561.561.571.605.133.154.285.33.165.154.3.308.132.154.363.375.231.275.484.549.176.2.44.473.143.165.441.5.142.176.165.154.286.308.155.187.1-.143.011-.4v-.9l.022-.385-.022-.319-.022-.286-.01-.253-.012-.231-.022-.231-.022-.133-.021-.253-.023-.22-.044-.495-.065-.473v-.253l.065-.066.309-.055.351-.033.144.011.055.242v.187l-.055.253v.441l-.033.593-.023.441-.033.231-.011.462v2.3l.011.352.033.3v.44l.023.231.021.242.044.451.033.209.033.3-.11.176Z"/>
          <path class="cls-27" d="M158.96,56.052l-2.607-.011-.616.044-.187-.143.022-.2.044-.242.022-.165.011-.22.044-.231v-.231l.022-.286.032-.319v-.572l.023-.352.033-.4v-.649l-.022-.473-.044-.452-.022-.209-.011-.2-.055-.419-.055-.275-.012-.264-.032-.209-.088-.418-.077-.374.077-.209.187-.044h2.783l.44-.022.209.011.341-.022.286.033.33-.044.253.1-.11.352-.285.22-.342-.077-.23-.033-.892-.088-.22-.011h-.428l-.452.044-.264.088-.022.286v.407l-.011.352-.044.309.022.242.2.076,1.035-.01h.362l.672-.034.3.056.054.1-.054.231-.111.374-.209.1-.263-.067-.2-.054-.187-.044-.605-.1-.2-.022-.33-.033-.418-.022-.11.077-.011.319v2.035l.011.22v.407l.033.286.011.22.011.385.022.319.1.066h.968l.429-.011.2-.011.2-.022.364-.066.4-.088.33-.1.188-.011.088.044.021.176-.088.33-.1.231-.067.055h-.759Z"/>
        </g>
      </g>
      <g id="crown">
        <g>
          <rect class="cls-15" x="124.6" y="29.298" width="1.391" height="8.458" rx="0.377"/>
          <path class="cls-15" d="M131.337,36.673a2.327,2.327,0,0,1-.746,1.683,6.909,6.909,0,0,0-1.7,2.513c-.076.2-.151.4-.226.6a.333.333,0,0,1-.245.214h-6.2a.335.335,0,0,1-.246-.214q-.112-.3-.228-.6a6.919,6.919,0,0,0-1.694-2.505,2.332,2.332,0,0,1-.746-1.684,2.721,2.721,0,0,1,2.895-2.509,2.841,2.841,0,0,1,2.822,1.951h.595a2.843,2.843,0,0,1,2.822-1.951A2.727,2.727,0,0,1,131.337,36.673Z"/>
          <path class="cls-15" d="M132.432,35.056a4.279,4.279,0,0,1-.12.58.4.4,0,0,1,.24.37.406.406,0,0,1-.41.411.173.173,0,0,1-.1-.021,5.984,5.984,0,0,1-2.21,2.5l-.49-.77c1.89-1.22,2.58-3.32,2.01-4.45a2.76,2.76,0,0,0-1.83-1.24,4.825,4.825,0,0,0-3.92.87l-.54-.74a5.979,5.979,0,0,1,2.85-1.12.059.059,0,0,1-.01-.04.41.41,0,1,1,.82,0v.011a4.128,4.128,0,0,1,.78.079.411.411,0,0,1,.8.13.149.149,0,0,1-.02.09,3.26,3.26,0,0,1,.62.29.39.39,0,0,1,.34-.19.406.406,0,0,1,.41.411.388.388,0,0,1-.09.25,2.757,2.757,0,0,1,.4.449.309.309,0,0,1,.18-.05.406.406,0,0,1,.41.41.386.386,0,0,1-.23.36,2.681,2.681,0,0,1,.12.59h.01a.41.41,0,1,1,0,.82Z"/>
          <path class="cls-15" d="M118.156,35.056a4.279,4.279,0,0,0,.12.58.4.4,0,0,0-.24.37.406.406,0,0,0,.41.411.173.173,0,0,0,.1-.021,5.984,5.984,0,0,0,2.21,2.5l.49-.77c-1.89-1.22-2.58-3.32-2.01-4.45a2.76,2.76,0,0,1,1.83-1.24,4.825,4.825,0,0,1,3.92.87l.54-.74a5.979,5.979,0,0,0-2.85-1.12.059.059,0,0,0,.01-.04.41.41,0,1,0-.82,0v.011a4.128,4.128,0,0,0-.78.079.411.411,0,0,0-.8.13.149.149,0,0,0,.02.09,3.26,3.26,0,0,0-.62.29.39.39,0,0,0-.34-.19.406.406,0,0,0-.41.411.388.388,0,0,0,.09.25,2.757,2.757,0,0,0-.4.449.309.309,0,0,0-.18-.05.406.406,0,0,0-.41.41.386.386,0,0,0,.23.36,2.681,2.681,0,0,0-.12.59h-.01a.41.41,0,1,0,0,.82Z"/>
          <path class="cls-15" d="M127.217,31.337a3.7,3.7,0,0,0-1.737,1.172.251.251,0,0,1-.369,0,3.7,3.7,0,0,0-1.737-1.172c-.16-.052-.16-.2,0-.249a3.7,3.7,0,0,0,1.737-1.172.251.251,0,0,1,.369,0,3.7,3.7,0,0,0,1.737,1.172C127.376,31.14,127.376,31.285,127.217,31.337Z"/>
          <g>
            <g>
              <path class="cls-15" d="M125.678,28.627q-.382-.006-.766,0c-.026,0-.062-.035-.081-.078l-.512-1.18c-.019-.043.015-.079.078-.08q.9-.012,1.8,0c.062,0,.1.037.078.08l-.512,1.18C125.741,28.592,125.7,28.627,125.678,28.627Z"/>
              <path class="cls-15" d="M125.678,28.957q-.382.006-.766,0c-.026,0-.062.035-.081.078l-.512,1.18c-.019.043.015.079.078.08q.9.012,1.8,0c.062,0,.1-.037.078-.08l-.512-1.18C125.741,28.992,125.7,28.957,125.678,28.957Z"/>
              <path class="cls-15" d="M125.13,28.409c0,.255,0,.511,0,.766,0,.026-.034.062-.077.082l-1.181.512c-.043.019-.078-.016-.079-.078q-.013-.9,0-1.8c0-.062.036-.1.079-.078l1.181.512C125.1,28.346,125.131,28.383,125.13,28.409Z"/>
              <path class="cls-15" d="M125.461,28.409c0,.255,0,.511,0,.766,0,.026.034.062.077.082l1.18.512c.043.019.079-.016.08-.078q.013-.9,0-1.8c0-.062-.037-.1-.08-.078l-1.18.512C125.5,28.346,125.46,28.383,125.461,28.409Z"/>
            </g>
            <circle class="cls-22" cx="125.295" cy="28.792" r="0.391"/>
          </g>
        </g>
      </g>
    </g>
  </g>
</svg>
