<svg xmlns="http://www.w3.org/2000/svg" viewBox="0 0 241.562 168.519">
  <defs>
    <style>
      .cls-1 {
        fill: #e6e6e6;
      }

      .cls-2 {
        fill: #b3b3b3;
      }

      .cls-3 {
        fill: #991a14;
      }

      .cls-4 {
        fill: #0a1c38;
      }
    </style>
  </defs>
  <g id="tea">
    <rect class="cls-1" x="74.268" y="158.89" width="54.622" height="9.629" rx="2.733"/>
    <path class="cls-1" d="M239.757,40.894c-.46-1.01-5.419-11.159-14.695-12.491C211.79,26.521,201.55,44.338,200.126,46.91a37.092,37.092,0,0,0-2.709,6.016c-2.618,9.046-9.552,34.992-18.552,69.984a6.42,6.42,0,0,0,1.653.276c3.536.137,6.245-1.975,7.944-3.353,5.052-4.087,6.751-6.2,8.542-7.623,6.658-5.235,12.858,0,21.216-2.893,9.413-3.214,13.638-13.96,18.23-25.67,4.087-10.47,4.546-18.874,4.96-26.359C242.053,46.267,240.491,42.455,239.757,40.894Zm-5.281,20.481c-.322,5.832-.689,12.353-3.858,20.481-3.582,9.139-6.842,17.5-14.189,20.022-6.521,2.25-11.3-1.837-16.486,2.25-1.378,1.1-2.756,2.71-6.659,5.878-1.332,1.1-3.444,2.709-6.153,2.618a4.862,4.862,0,0,1-1.332-.184C192.825,85.208,198.2,65,200.264,57.977a25.785,25.785,0,0,1,2.113-4.684c1.1-2.021,9.046-15.843,19.378-14.374,7.21,1.011,11.068,8.909,11.435,9.69C233.741,49.849,234.981,52.788,234.476,61.375Z"/>
    <path class="cls-2" d="M203.157,46.634c0,54.142-31.384,99.755-74.188,113.636-8.713,2.826-17.9,2.337-27.39,2.337s-18.676.487-27.391-2.342C31.408,146.378,0,100.769,0,46.634c0-.964,0-1.929.046-2.847.113-6.21-1.061-20.27,4.823-24.093C16.611,12.067,31.2,8.436,44.772,5.779A295.545,295.545,0,0,1,101.487.713a296.476,296.476,0,0,1,56.666,5.042c12.6,2.456,30.922,5.657,40.866,14.571,5,4.479,3.979,17.148,4.092,23.323C203.157,44.614,203.157,45.624,203.157,46.634Z"/>
    <path class="cls-1" d="M200.6,24.143c.919,4.711-2.739,9.073-4.008,10.6-10.548,12.656-40.719,12.91-89.9,13.662-10.481.16-33.707-1.781-80.162-5.855-4.465-.392-15.348-1.475-20.1-8.93-1.811-2.843-3.875-8.407-1.61-12.582.753-1.388,1.905-2.164,4.131-3.758a35.743,35.743,0,0,1,8.442-4.6,156,156,0,0,1,36.41-8.944C81.265,1.2,94.994-.065,109.115,0c0,0,46.223.22,80.14,14.184C193.209,15.815,199.557,18.816,200.6,24.143Z"/>
    <ellipse class="cls-3" cx="101.612" cy="30.676" rx="96.011" ry="22.633"/>
  </g>
  <g id="chars">
    <path class="cls-4" d="M172.765,109.027l-1.537.619L169.48,110l-2.363.267-1.223.064-2.348.069-1.154-.04-1.134-.114-1.086-.139-1.112-.189-1.14-.236-1.091-.262-1.845-.593-1.713-.918-.861-.519L150.8,106.1l-1.581-1.242-.745-.648-.771-.7-.606-.852-.629-.777-.722-.723-.7-.8-.559-.879-.583-.806-1.063-1.659-.922-1.742-.411-.839-.39-.911-.683-1.876-.965-3.039L139,86.237l-.335-2.7-.247-2.44-.1-1.073-.064-2.228-.008-1.126.115-1.133.139-1.088.446-2.325.718-2.292.31-1.119.384-1.1,1.042-2.162.608-1.036,1.293-2.052.787-.946,1.1-1.061.581-.643,1.013-.763,1.138-.768.927-.586,1.1-.619,2.9-1.2.939-.342.964-.3,1.769-.433,1.9-.194,1.1-.058,2.4.026,1.975.266,1.73.28,1.94.536,1.952.785.907.492.887.568.838.6,1.616,1.413.772.694.75.772.776.818,1.5,1.541,1.46,1.69,1.321,1.893.566,1,.614.973.518,1.03.933,1.985.446,1.006.415.96.669,2.074.226,1.068.4,2.159.057,1.1-.066,1.108-.5,1.789-1.018,1.645-.844.73-1,.566-1.063.347-1.147.085-1.134-.115-2.187-1.091L174.4,83.451l-.9-.812-.229,1.263-.289,1.046-.515,1.421-.563,1.01-1.168,1.6-1.509,1.669-.845.729-.945.661L165.457,93.1l-1.107.374-1.137.328-1.827.214-1.662.062-1.684-.307-1.709-.354-1.1-.383-1.192-.776-.657-.383-1.167-1.288L151.169,89.3l-.658-1.39-.4-1.033-.321-1.013-.224-1.068-.1-1.073.057-2.234.142-1.085.29-1.044.364-1.024.959-1.864.847-1.169.982-.932.871-.682,1.215-.748,1.156-.845,2.34-.755,1.163-.279,1.087-.3,1-.124,1,0,2.138.113,1.114.188,1-.124-.309-.768L166.4,69.3l-.26-1.237.465-.955.762.01,1.027.928.554.756.666,1.07.558,1.32.511.9.984,1.961.61,1.415L175,80.283l.556.757.627.777,1.466,1.371.936.542,1.5.217,1.2-.43,1.113-1.7.259-1.213-.174-2.417-.2-1.143-.326-1.133-.825-2.238-.571-1.566-.789-1.5-.7-1.362L178.3,68.1l-.554-.755-.627-.777-1.357-1.622-.784-.941-1.507-1.663-1.332-1.132-.852-.84-1.015-.685-1.367-.86-.853-.4-1.926-.736-1.017-.243-2.129-.43L160.7,56.87l-1.251.013-2.044.278-2.209.43-2.388.783-1.054.471-2,1.131-1.871,1.248-.772.75-1.562,1.575-.69.892-.635.99-.562,1.008-.926,2.032-.488,1.031-.337,1.07-.526,2.186-.208,1.185-.409,1.614-.02,1.522L140.7,78.11l0,1.006.126,2,.195,1.9.3,1.97.147.926.2,1.019.507,2.229.71,1.926.449,1.568,1.563,2.764.612.975.566,1,.957,1.471,1.02,1.246.675.749.7.8,1.569,1.44,1.691,1.434,1.779,1.259.907.492.929.419.95.342,1.017.243,2.2.451,1.187.208,2.357.053,1.127-.008,1.1-.056,2.777-.314,1.5-.346.96-.416.931-.465,1.71-1.094,1.7-1.213,1.318-1.121,1.259-1.216.622-.79.965-1.741.446-.881.344-.949.3-.921.386-1.54.225-1.826.161-1.159.566-1.452,1.146-.083.747,1.653-.068,1.107-.138,1.087-.19,1.111-.263,1.093-.291,1.045-.672,2.141-1.057,1.916-.567.888-1.371,1.465-.675.7L177.463,106l-.87.681-1.738,1.044-.939.782Zm-7.083-18.756,1.533-1.183.722-.722,1.36-1.712.655-1.063.508-1.1.567-2.333.088-1.181L171,79.777l-.412-1.843-.671-1.633-.609-.851-1.533-1.269-.855-.4-1.824-.666-.935-.1-1,0-2.025.2-.971.171-1.013.323-1.15.523-.524.3-1.117.695-1.682,1.14-.771.75-.616.914-.559,1.008-.393.975-.416,1.935-.026,1.4.251,1.556.5,2.108.512.905,1.31,1.649.845.716.936.542,2.013.558,2.151.357,1.052-.029,1.067-.226,1.278-.41,1.11-.373Z"/>
    <path class="cls-4" d="M126.419,141.769l-.253-.6.679-2.585.538-2.273.662-2.3,5.394-20.531,1.02-1.2,1.144.125.41.46.066.195v.235l-7.143,27.191-.556,1.442-1.016.5Zm-3.272,8.2.231-2,.617-.778.847-.542,1.905.146,1.231.911.33,1.206-.6,1.607-1.755,1.305-1.765-.228Z"/>
    <path class="cls-4" d="M15.846,100.392l.553-2.6,1.325-2.971,1.117-2.53L20,89.939l.618-1.33.541-1.353,1.36-2.8.705-1.641-.668-.6-.889-.414-1.9-.358-1.571-.352-1.629-.452L14.7,79.54l.1-1.557.864-1.014,2.179.27,2.638.73,2.691.829,2.488-1.147,1.009-2.14,1.089-2.119.974-2.316,1.011-2.142.934-2.161-.856-1.739L28.5,64.669l-3.4-.691-2.461-.765-.5-.892.323-1.162.711-1.055,1.967.128,2.912.639,2.945.815,1.833.009.839-1.521,1.856-3.992L36.8,53.364l.541-1.352,1.136-1.687.538-.436.3-.168,1.191.83.145,2.794-1.3,2.9L38.164,59l-.7,1.308-.832,2.107.79,1.054L41.3,64.542l1.994.637,5.125,1.086,1.2-1.336,1.337-2.719.782-1.617.812-2.028.86-1.6L54.6,54.791l1.686-.367,1.062,1.3L57,57.877l-1.578,2.985-1.464,3.181L53.3,65.53l.338,2.1,2.847.871,3.511.891,2.261.876.68.857-.244,1.184-.91,1.167-1.635-.118-1.817-.672-2.214-.445-3.9-1-1.482-.075-.749,1.794-.639,1.407-.717,1.388-1.425,3.029-.761,1.543L45.008,83.1l.912,1.838,5.991,1.576,2.182.856.78.8.237.65-.443,1.3-2.681.341L48.44,89.391,44.8,88.382,42.205,89,41.06,91.936,39.7,94.731l-.89,2.007-1.053,2.3-1.075,2.374-1.041,2.547-1.2,1.923-1.269.065-1.133-.73-.092-1.779,1.283-2.817,1.452-3.437,1.14-2.605.889-2.007,1.031-2.219L38.284,89l.571-1.763-1.112-.807L31.93,84.817l-2.536-.787-1.783-.5-1.382,1.372-.7,1.311-1.26,2.737-1.3,2.9-1.323,2.972-.685,1.563L19.8,99.067l-1,1.808-1.387.786Zm19.6-18.609,2.086.91,2.346.567,1.92-1.805,1.477-2.927,1.457-2.853.761-1.541,1.6-3.65-1.379-1.047-4.417-1.224-6.3-1.662-.2.11-.836,1.52-.664,1.488-.639,1.408-.663,1.486-.74,1.465-.66,1.485-.641,1.409-.663,1.484.944,2.016,1.627.45,2.031.812Z"/>
    <path class="cls-4" d="M66.429,151.9l-.87-.719-.481-1.328.6-1.814.867-2.552.388-1.423.823-2.7.568-1.644-.891.025-1.7.593-1.7.348-1.6.4-1.941.338-1.552-1.085-.011-1.386,1.816-1.037,5.772-1.737.395-1.673-3.466-3.37-1.538-1.581-.631-.464-.45-.684.433-1.273,1.161-.76,2.079.928,1.23,1.1,2.312,2.247,1.177,1.2,1.792.524.913-2.4.494-1.619.591-1.568,1-2.919,1.889-1.058,1.465.786-.246,2.445-1.617,4.411-.562,1.394,1.306,1.079,4.7-1.5,2.27-.6,1.216.778.188,1.169-.6,1-1.86.887-2.774.834-2.8,1.007-.615,1.492,1.525,1.26L78.92,140.7l1.516,1.507.923,1.438-.081,1.088-1.507.7-2.123-1.078-1.036-1-2.048-1.917-1.035-1-1.6-.417-.584,2.136-1.032,3.09-.957,3.068-.538,1.471L67.5,151.658Z"/>
    <path class="cls-4" d="M82.068,77.692l-1.639-.863-1.407-1.27L77.3,73.419l-.667-2.411-.13-1.089.191-2.4.567-2.043,1.05-1.856.649-1.032L79.8,61.6l.867-.843,2.174-1.318,1.212-.365,2.756-.184,1.448.288,1.682.413,1.547.974,2.483,1.73,1.91,2.187.833,1.461.333,1.335.117,1.153.05,1.136L96.8,72.047l-.586,1.31-.757,1.2-1.9,2.111L91.1,78.053l-1.29.412-2.645.54-1.355-.132-1.263-.244Zm4.257-1.734,1.261-.02,1.23-.162,1.165-.442,1.133-.582,2.029-1.815,1.189-2.685-.121-2.208L93.689,66.4l-1.534-1.832-1.047-.851L88.94,62.587l-2-.488L85,61.953l-1.134.316-.993.551-1.659,1.642-.649,1.03-.523,1.064-.663,1.62,0,1.915.681,2.349,1.533,1.566.9.615,1.764.9Zm-6.5,26.3.972-1.812L82.6,98.708l.868-1.11L84.71,96.05l1.146-1.437.773-1,.758-.938,1.626-2.048,1.733-1.954.757-.938.744-.875.866-1.11.977-1.017,1.561-2.064,1.642-1.844,1.425-1.766L100.3,77.2l1.72-1.891.821-.922,1.718-1.893.806-.861,1.625-1.783.727-.812.807-.86,1.471-1.689,1.395-1.112,1.324.258.505,1.181-.942,1.423-5.345,5.894-2.555,2.876L101.34,80.5l-1.485,1.75L98.43,84.011,96.82,86l-3.515,4.1L91.649,92l-2.368,2.921-.928,1.095L87.535,97.2l-1.672,2.236-.914,1.031-1.331,1.657-1.439,1.565-1.87.071Zm21.146,7.292-1.638-.865-1.408-1.269L96.2,105.273l-.666-2.41-.129-1.089.192-2.4.565-2.042,1.05-1.859.648-1.031.837-.984.866-.845,2.173-1.319,1.213-.364,2.755-.184,1.448.288,1.684.412,1.546.974,2.485,1.73,1.909,2.188.832,1.459.334,1.338.115,1.152.052,1.135L115.7,103.9l-.586,1.31-.757,1.2-1.906,2.111L110,109.908l-1.29.411-2.644.542-1.355-.133-1.264-.242Zm4.258-1.733,1.261-.023,1.228-.161,1.167-.442,1.133-.581,2.031-1.816,1.185-2.684-.118-2.211-.524-1.646-1.535-1.83-1.046-.852-2.171-1.126-1.994-.488-1.946-.146-1.135.318-1,.548-1.656,1.643L99.46,97.35l-.524,1.06-.662,1.624-.007,1.915.682,2.345,1.533,1.566.905.619,1.764.895Z"/>
  </g>
</svg>
