<svg xmlns="http://www.w3.org/2000/svg" viewBox="0 0 191.619 270.237">
  <defs>
    <style>
      .cls-1 {
        fill: #e6e6e6;
      }

      .cls-2 {
        fill: #b3b3b3;
      }

      .cls-3 {
        fill: #0a1c38;
      }

      .cls-4 {
        fill: #bbddf2;
      }
    </style>
  </defs>
  <g id="base">
    <path class="cls-1" d="M155.7,251.8a112.553,112.553,0,0,1-7.846,11.945,25.778,25.778,0,0,1-11.287,4.681l-.107.019a125.237,125.237,0,0,1-42.213,0l-.107-.019a25.783,25.783,0,0,1-11.287-4.681A112.4,112.4,0,0,1,75.011,251.8"/>
  </g>
  <g id="body">
    <path class="cls-2" d="M167.128,205.043a226.112,226.112,0,0,1-5,40c-2.07,10.4-22.8,15.78-46.77,15.6H114.2c-23.48,0-43.57-5.37-45.62-15.6q-1.125-5.34-1.99-10.49c-.1-.02-.19-.05-.28-.07-3.92-.97-20.07-10.27-26.92-22.02s-3.42-35.23-9.78-42.57a53.461,53.461,0,0,0-10.94-9.11,1.569,1.569,0,0,1,1.04-2.87c4.34.49,8.69,1.05,13,1.77,3.6.61,8.73.97,11.86,3.01,1.58,1.02,1.56,3.69,2.24,5.37a47.592,47.592,0,0,0,2.98,5.98,150,150,0,0,0,10.65,15.91,54.934,54.934,0,0,0,4.9,5.76c3.63-11.57,12.08-26.9,16.41-34.73a4.3,4.3,0,0,0,.27-.52,119.947,119.947,0,0,0,6.55-21.11,19.928,19.928,0,0,1,1.07-3.39,7.52,7.52,0,0,1-4.99-7.06h61.42a7.483,7.483,0,0,1-5,7.05,19.786,19.786,0,0,1,1.08,3.4,119.947,119.947,0,0,0,6.55,21.11,4.3,4.3,0,0,0,.27.52C154.648,171.243,167.378,194.363,167.128,205.043Z"/>
  </g>
  <g id="chars">
    <path class="cls-3" d="M132.916,244.99l-1.633-.276-1.678-.608-2.154-1.008-1.076-.585-2.038-1.169-.963-.637-.908-.689-.852-.687-.85-.742-.848-.8-.793-.794-1.264-1.47-.98-1.678-.462-.892-.7-1.944-.7-1.885-.3-.941-.293-1-.072-1.043-.13-.992-.238-.993-.181-1.046-.018-1.042-.075-.992-.04-1.97.125-1.967.088-.93.144-.981.4-1.956.766-3.1.849-2.269,1.127-2.48,1.065-2.209.472-.969,1.11-1.933.582-.964.69-.906.687-.855,1.6-1.748,1.81-1.579.849-.793.9-.734,2.018-1.3,1.06-.565,2.175-1.074,1.165-.395,1.49-.332.831-.244,1.263-.121,1.372-.06,1.1-.014,1.258.044,3.1.494.98.2.976.252,1.734.556,1.722.828.968.526,2.035,1.278,1.545,1.259,1.328,1.143,1.373,1.471,1.254,1.689.517.894.459.948.4.946.639,2.049.3,1,.236,1.049.234,1.1.474,2.1.362,2.2.136,2.3-.041,1.15.015,1.151-.1,1.149-.243,2.179-.146,1.091-.147,1.035-.514,2.118-.366,1.029-.784,2.051-.527.97-.636.909-1.359,1.264-1.729.871-1.1.181-1.149-.04-1.088-.26-1.022-.527-.906-.691-1.295-2.073-.624-2.488-.343-1.162-.855.957-.793.74-1.182.943-1.008.567-1.835.757-2.158.634-1.1.18-1.152.07-2.242-.135-1.139-.259-1.141-.315-1.67-.772-1.449-.817-1.275-1.141-1.273-1.2-.735-.9-.611-1.285-.36-.669-.321-1.709-.218-1.649.166-1.529.2-1.089.255-1.031.367-1.028.472-.969,1.216-1.875.688-.851.793-.738.846-.683L131.616,206l1.333-.554,1.324-.281,1.1-.126,1.427,0,1.427-.116,2.389.58,1.138.37,1.084.31.916.417.858.521,1.764,1.214.851.742.916.417.139-.817-.024-.877.425-1.191.9-.57.644.406.39,1.328.077.935.009,1.26-.214,1.417-.037,1.038-.187,2.186-.219,1.524-.2,5.525.078.935.129.99.533,1.935.515.951,1.169.972,1.252.264,1.838-.867.854-.9,1.116-2.151.422-1.082.314-1.136.467-2.34.332-1.633.113-1.694.111-1.529L159.028,213l-.078-.933-.129-.99-.309-2.092-.175-1.212-.417-2.206-.543-1.662-.287-1.161-.508-1.115-.716-1.447-.519-.785-1.257-1.634-.74-.739-1.591-1.479-1.869-1.325-1.073-.643-1.888-.832-2.109-.788-2.444-.58-1.145-.15-2.3-.082-2.248.086-1.049.236-2.156.526-1.054.4-1.059.512-1.006.566-1.852,1.248-.954.624-.847.736-1.591,1.589-.8.9-1.192,1.162-.812,1.287-.578.856-.524.858-.94,1.773-.828,1.724-.777,1.833-.359.866-.364.973-.733,2.165-.4,2.013-.436,1.571-.113,3.174.013,1.15-.041,1.15.047,1.754.218,1.595.184.992.182,1.047.584,2.048.692,2.106.86,2,.515.893.573.843.631.788.74.739,1.644,1.537.9.8,1.981,1.277.965.582.968.528,2.531,1.184,1.462.49,1.035.147,1.038.091,2.029-.039,2.086-.144,1.708-.267,1.71-.379.943-.348,1.733-.981.841-.517.789-.629.734-.63,1.135-1.111,1.145-1.44.744-.9,1.241-.942,1.021.528-.228,1.8-.636.908-.686.854-.743.848-.8.794-.794.739-1.692,1.475-1.9,1.08-.948.461-1.934.533-.94.241-2.042.366-1.1.126-2.028-.018-1.21.176Zm3.766-19.692,1.924-.208.994-.238,2.054-.749,1.114-.563,1.011-.677,1.7-1.692.693-.961.53-1.077.612-1.787.281-1.742-.074-1.044-.644-1.883-.52-.786-1.207-1.522-.745-.573-.858-.523-1.831-.888-.917-.362-1.033-.254-1.253-.156-.6-.02-1.315.008-2.03.093-1.049.236-1,.458-1,.567-.845.626-1.366,1.432-.753,1.177-.6,1.458-.676,2.057-.037,1.039.255,2.091.346,1.052.515.952,1.424,1.527,1.647,1.429.912.525,1.028.365,1.3.319,1.141.261Z"/>
    <path class="cls-3" d="M47.74,203.21l-.531-.373-.8-2.551-.749-2.212-.658-2.3L38.69,175.509l.227-1.562,1.036-.5.591.172.16.131.124.2,8.365,26.839.293,1.518-.6.961Zm1.575,8.688-.864-1.818.11-.986.431-.909,1.692-.887,1.527.12.919.847.346,1.679-.8,2.037-1.617.744Z"/>
    <path class="cls-3" d="M93.1,184.279l.553-2.6,1.325-2.971,1.117-2.529,1.154-2.352.618-1.33.541-1.353,1.36-2.795.7-1.64-.668-.6-.889-.413-1.9-.358-1.571-.353-1.628-.452-1.865-1.1.1-1.558.864-1.014,2.179.271,2.637.729,2.692.83,2.488-1.147,1.009-2.14,1.089-2.12.974-2.316,1.011-2.142.934-2.161-.856-1.739-1.316-.365-3.4-.691-2.461-.764-.5-.892.323-1.163.711-1.054,1.967.127,2.912.639,2.945.815,1.833.009.839-1.521,1.856-3.992,1.283-2.817.541-1.353,1.136-1.686.538-.437.3-.167,1.191.829.144,2.8-1.3,2.894-1.181,2.761-.7,1.308-.833,2.107.791,1.054,3.877,1.072,1.994.637,5.125,1.086,1.2-1.335,1.338-2.72L129,144.48l.811-2.028.861-1.6,1.187-2.175,1.686-.367,1.062,1.3-.348,2.157-1.578,2.985-1.464,3.181-.665,1.487.338,2.1,2.847.871,3.511.89,2.26.876.681.857-.244,1.184-.91,1.168-1.635-.119-1.818-.672-2.213-.445-3.9-1-1.482-.075-.749,1.794-.639,1.407-.718,1.388-1.424,3.029-.761,1.543-1.437,2.772.912,1.838,5.991,1.577,2.182.855.78.8.237.65-.443,1.3-2.681.34-3.546-1.065-3.643-1.009-2.592.616-1.145,2.938-1.36,2.795-.89,2.007-1.053,2.3-1.075,2.374-1.041,2.547-1.2,1.924-1.269.064-1.133-.729-.092-1.779,1.283-2.818,1.452-3.437,1.14-2.6.889-2.008,1.031-2.219.543-1.351.571-1.763L115,170.316l-5.813-1.611-2.536-.788-1.783-.5-1.382,1.372-.7,1.311-1.26,2.737-1.3,2.894L98.9,178.709l-.684,1.562-1.161,2.683-1,1.809-1.386.785Zm19.594-18.608,2.087.909,2.346.567,1.92-1.8,1.477-2.927,1.457-2.852.761-1.542,1.6-3.65-1.379-1.047L118.54,152.1l-6.3-1.662-.2.11-.837,1.521-.663,1.487-.639,1.409-.663,1.485-.74,1.465-.66,1.485-.641,1.409-.663,1.484.944,2.016,1.627.45,2.03.812Z"/>
    <path class="cls-3" d="M92.694,253.984l-.871-.719-.48-1.328.6-1.814.867-2.552.389-1.424.823-2.7.567-1.644-.891.025-1.7.592-1.7.349-1.6.4-1.94.338-1.553-1.085-.01-1.386L87.014,240l5.772-1.738.4-1.673-3.467-3.369-1.538-1.581-.63-.464-.45-.684.432-1.273,1.161-.76,2.079.927,1.231,1.1,2.311,2.246,1.178,1.2,1.792.523.913-2.4.494-1.619.591-1.569,1-2.918,1.889-1.059,1.464.787-.245,2.445-1.618,4.41-.561,1.394L102.516,235l4.7-1.495,2.27-.6,1.216.778.188,1.168-.6,1-1.86.887-2.775.833-2.8,1.007-.614,1.493,1.524,1.26,1.418,1.452,1.515,1.507.924,1.438-.081,1.088-1.507.7-2.123-1.077-1.037-1-2.048-1.917-1.035-1-1.6-.418-.583,2.136-1.032,3.091-.958,3.068-.538,1.47-1.318,1.867Z"/>
    <path class="cls-3" d="M77.623,217.621l-.721,1.062-.983.871-1.606,1.021-1.711.273-.76.006-1.637-.316-1.363-.548-1.2-.866-.66-.526-.614-.652-.514-.662-.74-1.6-.158-.862.086-1.912.31-.975.413-1.127.79-.989,1.383-1.577,1.653-1.147,1.07-.46.945-.127.8.008.786.053,1.674.471.857.5.77.614,1.307,1.475.762,1.8.185.92.168,1.863-.2.923-.265.851Zm-.866-3.065.083-.87-.016-.86-.215-.836-.313-.825L75.2,209.628,73.446,208.6l-1.531-.086-1.175.232-1.379.915-.666.655-.943,1.407-.49,1.338-.25,1.329.13.805.3.727,1,1.269.66.526.692.442,1.064.581,1.318.151,1.67-.287,1.2-.935.493-.576.752-1.145Zm17.607,6.5-1.173-.809-1.056-1.381-.7-.683-.97-.972-.9-.9-.629-.61-.587-.594-1.285-1.277-1.212-1.344-.587-.594-.545-.58-.7-.682-.625-.751-1.3-1.234-1.143-1.273-1.106-1.117-1.16-1.23-1.17-1.33-.571-.636-1.172-1.329-.53-.621-1.1-1.256-.5-.564-.53-.621-1.05-1.144-.658-1.046.28-.892.852-.257.907.759,3.647,4.134,1.783,1.981,2.168,2.357,1.091,1.158,1.106,1.117,1.244,1.262,2.549,2.736,1.187,1.287,1.829,1.856.682.723.753.655,1.411,1.323.639.71,1.039,1.043.966,1.112-.094,1.293Zm6.651-14-.722,1.062-.982.871L97.7,210.017l-1.71.273-.76,0-1.636-.316-1.362-.547-1.2-.866-.66-.526-.614-.652-.515-.662-.74-1.6-.157-.864.085-1.911.31-.975.414-1.128.79-.989,1.382-1.578,1.654-1.146,1.068-.46L95,195.95l.8.01.787.051,1.675.472.857.5.769.614,1.307,1.475.762,1.8.183.92.17,1.862-.2.923-.264.852ZM100.15,204l.081-.87-.017-.858-.213-.838-.313-.825-1.094-1.538-1.757-1.023-1.531-.089-1.174.234-1.378.916-.668.655-.942,1.407-.49,1.336-.251,1.328.131.806.3.728,1,1.268.66.526.69.443,1.067.58,1.318.153,1.667-.289,1.2-.935.5-.576.752-1.145Z"/>
  </g>
  <g id="lid">
    <path class="cls-1" d="M144.128,128.9H86.588c0-6.75,10.74-12.33,24.7-13.25v-3.16a7.63,7.63,0,1,1,8.14,0v3.16C133.388,116.573,144.128,122.153,144.128,128.9Z"/>
  </g>
  <g id="handle">
    <path class="cls-1" d="M191.528,151.373a64.04,64.04,0,0,1-7.06,25.97,74.406,74.406,0,0,1-6.03,9.78l-7.85,12.92v1.21c-.43-1.24-.86-2.47-1.3-3.71q-1.605-4.62-3.23-9.24c-.55-1.58-1.1-3.15-1.65-4.73a13.329,13.329,0,0,0,1.55-.24,6.446,6.446,0,0,0,3.682-1.85c2.233-2.557,3.572-5.706,4.868-8.81a89.34,89.34,0,0,0,6.18-22.29,59.566,59.566,0,0,0-1.16-23.16,63.269,63.269,0,0,0-10.19-21.18,69.077,69.077,0,0,0-17.24-16.59,82.359,82.359,0,0,0-22.01-10.57c-.98-.3-1.96-.65-2.95-.93l-3.01-.73-3.02-.74c-1.01-.25-2.04-.37-3.06-.56l-3.07-.55-1.54-.27c-.51-.08-1.03-.12-1.55-.18l-6.22-.67-.04-.01a.546.546,0,0,1,.07-1.09l6.33.06c.53.01,1.06,0,1.59.03l1.58.12,3.17.25c1.05.1,2.12.14,3.17.31l3.15.49,3.16.5c1.05.19,2.08.47,3.12.7a86.815,86.815,0,0,1,24.05,9.17,75.43,75.43,0,0,1,20.08,16.75,71.358,71.358,0,0,1,12.87,23.2A75.1,75.1,0,0,1,191.528,151.373Z"/>
    <rect class="cls-1" x="160.059" y="179.448" width="7.734" height="27.275" rx="3.629" transform="translate(-55.32 66.259) rotate(-19.621)"/>
  </g>
  <g id="steam">
    <path class="cls-4" d="M75.328,15.883c-3.41-7.44-11.04-11.52-18.65-13.5A71.046,71.046,0,0,0,30.708.453a24.2,24.2,0,0,0-11.18,4.27c-2.31,1.63-6.35,4.36-7.13,7.24-1.06,3.91,4.31.19,5.37-.34,9.19-4.59,24.74-.83,28.17,9.73,1.7,5.24-.47,11.52-4.31,15.22-3.45,3.32-7.82,5.59-11.8,8.2q-6.315,4.155-12.28,8.84c-3.92,3.07-8.84,6.45-9.68,11.73-1.11,7.03,5.15,13.52,11.53,15.32,6,1.7,13.06-1.23,18.33,3.03,4.71,3.8,5.43,10.17,4.5,15.78a43.235,43.235,0,0,1-3.09,10c-3.92,9.08-10.17,15.48-19.54,18.97a18.428,18.428,0,0,0-7.82,5.7c-4.42,5.83-.17,12.22,5.07,15.55,3.78,2.4,8.11,4.08,12.19,5.92,1.21.54,1.14-.39.75-1.25a9.053,9.053,0,0,0-4.16-3.81c-4.77-2.62-10.65-5.07-12.85-10.45a13.352,13.352,0,0,1-.76-2.55c-1.16-5.91,8.83-8.57,12.88-9.71,8.66-2.45,28.13-7,33.81-15.31,5.66-8.3-.85-21.96-6.53-26.08-9.08-6.58-18.68-4.72-27.69-7.44-3.61-1.09-6.21-3.19-6.75-7.08-.93-6.63,4.32-10.5,10.03-12.5,13.85-4.85,30.07-4.99,42.4-13.66C79.2,39.433,79.558,25.1,75.328,15.883Zm-28.72,75.7c-.07-.18-.37-.93-.24-1,.09-.05.36.27.46.38,4.31,5.12,4.43,12.54,1.79,18.46a17.618,17.618,0,0,1-8.95,8.98c.44-.19,1.68-2.31,2.09-2.8a34.064,34.064,0,0,0,2.46-3.27,22.735,22.735,0,0,0,3.34-7.53A23.206,23.206,0,0,0,46.608,91.583Zm8.24-52.14a29.184,29.184,0,0,1-5.88,4.61c-.44.26-4.19,2.66-4.48,2.3-.18-.24,1.96-1.96,2.13-2.12,3.96-3.63,7.18-7.72,8.49-13.03a26.044,26.044,0,0,0-.99-15.1,25.734,25.734,0,0,0-1.16-2.78c-.76-1.5-1.37-2.23-1.23-2.36.21-.19,1.74,1.07,2.95,2.25a19.394,19.394,0,0,1,4.98,7.22,17.194,17.194,0,0,1,1.06,6.23A19.148,19.148,0,0,1,54.848,39.443Z"/>
    <path class="cls-4" d="M28.969,76.113a4.466,4.466,0,0,1-.51-.139c-3.321-1.128-2.948-6.039-1.529-8.521,1.633-2.858,4.564-4.189,7.519-5.253,4.938-1.778,9.874-3.555,14.827-5.29-.479.418-1.192,1.23-1.782,1.717a16.487,16.487,0,0,1-2.568,1.592c-2.888,1.589-6.2,2.266-8.842,4.295-3.3,2.532-5.846,6.606-5.607,10.877a1.336,1.336,0,0,0,.075.43,2.089,2.089,0,0,0,.263.353,4.141,4.141,0,0,1-.769.068A6.625,6.625,0,0,1,28.969,76.113Z"/>
    <path class="cls-4" d="M25.3,19.992l0,.024c.067.43.693.5,1.03.563a4.209,4.209,0,0,1,2,.892,6.565,6.565,0,0,1,1.408,1.689A10.121,10.121,0,0,1,30.8,28.908c-.3,3.647-3.191,7.377-5.874,9.725a6.859,6.859,0,0,1,2.024-.9,17.672,17.672,0,0,0,5.07-3.131,13.033,13.033,0,0,0,4.12-9.724,5.908,5.908,0,0,0-3.174-5.2,8.538,8.538,0,0,0-3.785-.9,9.62,9.62,0,0,0-1.952.183,3.717,3.717,0,0,0-1.705.654.9.9,0,0,0-.137.139A.38.38,0,0,0,25.3,19.992Z"/>
    <path class="cls-4" d="M23.007,92.73a2.6,2.6,0,0,0,.784,1.791c7.068,7.257,1.058,17.329-5.628,22.226-5.743,4.2-13.186,7.384-16.555,14.048A15.56,15.56,0,0,0,.15,135.289c-.667,4.053.937,6.685,3.793,9.333,1.071.993,2.156,2,2.348,1.858-.58.176-2.876-5.785-3-6.48-1.6-8.652,8.429-14.33,14.408-18.369,6.6-4.457,14.824-10.784,15.678-19.351a13.679,13.679,0,0,0-.131-3.665c-.6-3.489-4.884-10.746-9.347-7.521A2,2,0,0,0,23.007,92.73Z"/>
  </g>
</svg>
